<?xml version="1.0" encoding="UTF-8" standalone="no"?>
<!-- Created with Inkscape (http://www.inkscape.org/) -->

<svg
   xmlns:dc="http://purl.org/dc/elements/1.1/"
   xmlns:cc="http://creativecommons.org/ns#"
   xmlns:rdf="http://www.w3.org/1999/02/22-rdf-syntax-ns#"
   xmlns:svg="http://www.w3.org/2000/svg"
   xmlns="http://www.w3.org/2000/svg"
   xmlns:sodipodi="http://sodipodi.sourceforge.net/DTD/sodipodi-0.dtd"
   xmlns:inkscape="http://www.inkscape.org/namespaces/inkscape"
   width="891.25"
   height="81.495476"
   id="svg2"
   version="1.1"
   inkscape:version="0.48.5 r10040"
   sodipodi:docname="prob_of_uni-saarland_owl.svg">
  <defs
     id="defs4" />
  <sodipodi:namedview
     id="base"
     pagecolor="#ffffff"
     bordercolor="#666666"
     borderopacity="1.0"
     inkscape:pageopacity="0.0"
     inkscape:pageshadow="2"
     inkscape:zoom="0.82106903"
     inkscape:cx="442.48568"
     inkscape:cy="35.682605"
     inkscape:document-units="px"
     inkscape:current-layer="layer1"
     showgrid="false"
     inkscape:window-width="1294"
     inkscape:window-height="724"
     inkscape:window-x="3"
     inkscape:window-y="7"
     inkscape:window-maximized="0"
     fit-margin-top="0"
     fit-margin-left="0"
     fit-margin-right="0"
     fit-margin-bottom="0" />
  <metadata
     id="metadata7">
    <rdf:RDF>
      <cc:Work
         rdf:about="">
        <dc:format>image/svg+xml</dc:format>
        <dc:type
           rdf:resource="http://purl.org/dc/dcmitype/StillImage" />
        <dc:title></dc:title>
      </cc:Work>
    </rdf:RDF>
  </metadata>
  <g
     inkscape:label="Layer 1"
     inkscape:groupmode="layer"
     id="layer1"
     transform="translate(169.28186,-312.61005)">
    <path
       style="fill:#10427a;fill-opacity:1"
       d="m 455.08048,338.41393 c -1.69,0.20944 -3.36056,4.35956 -6.21875,12.1875 -2.47069,6.76665 -4.83289,13.325 -5.21875,14.5625 -0.60338,1.93509 -0.32309,2.25 1.90625,2.25 1.84482,0 2.85478,-0.72076 3.53125,-2.5 0.85239,-2.24196 1.5177,-2.5 6.375,-2.5 4.94344,0 5.45858,0.21827 6.03125,2.5 0.48645,1.93816 1.28119,2.5 3.5,2.5 l 2.875,0 -5.21875,-14.25 c -3.71571,-10.1593 -5.64717,-14.98736 -7.5625,-14.75 z m 28.65625,0 c -1.80399,0.37205 -3.70402,5.22566 -7.1875,14.75 l -5.21875,14.25 2.84375,0 c 2.21881,0 3.01355,-0.56184 3.5,-2.5 0.57267,-2.28173 1.11906,-2.5 6.0625,-2.5 4.8573,0 5.49136,0.25804 6.34375,2.5 0.67647,1.77924 1.71768,2.5 3.5625,2.5 3.03109,0 3.25386,1.17128 -3.3125,-16.8125 -2.85819,-7.82794 -4.52875,-11.97806 -6.21875,-12.1875 -0.11971,-0.0148 -0.25473,-0.0248 -0.375,0 z m 18.34375,0 0,14.5 0,14.5 2.46875,0 c 2.28128,0 2.47076,-0.39617 2.75,-5.75 0.25621,-4.91243 0.59604,-5.81237 2.34375,-6.0625 1.62435,-0.23247 2.64418,0.9518 4.9375,5.75 2.52176,5.27613 3.22865,6.0625 5.6875,6.0625 1.54887,0 2.8125,-0.23718 2.8125,-0.5 0,-0.26281 -1.20434,-2.94464 -2.6875,-5.96875 l -2.6875,-5.5 2.03125,-2.28125 c 3.05287,-3.39002 3.47226,-5.48972 1.875,-9.3125 -1.77206,-4.24115 -4.64576,-5.4375 -13.09375,-5.4375 l -6.4375,0 z m 29,0 0,14.5 0,14.5 9,0 c 8.9333,0 9,-0.0185 9,-2.5 0,-2.4103 -0.23333,-2.5 -6.5,-2.5 l -6.5,0 0,-12 0,-12 -2.5,0 -2.5,0 z m 55.25,0 c -2.2308,-0.0194 -2.25,0.12382 -2.25,14.5 l 0,14.5 2.46875,0 c 2.40517,0 2.46763,-0.20121 2.75,-8.75 l 0.28125,-8.75 5.5,8.6875 c 4.69818,7.43035 5.90091,8.7081 8.25,8.75 l 2.75,0.0625 0,-14.5 0,-14.5 -2.9375,0 -2.96875,0 -0.28125,8.75 -0.3125,8.75 -5.5,-8.75 c -4.23643,-6.72469 -6.01691,-8.7349 -7.75,-8.75 z m 28.75,0 0,14.5 0,14.5 6.5625,0 c 11.32109,0 14.4375,-3.18924 14.4375,-14.625 0,-11.24836 -3.32535,-14.375 -15.15625,-14.375 l -5.84375,0 z m 29,0 0,14.5 0,14.5 9,0 c 8.9333,0 9,-0.0185 9,-2.5 0,-2.4103 -0.23333,-2.5 -6.5,-2.5 l -6.5,0 0,-3.5 0,-3.5 5.5,0 c 5.2,0 5.5,-0.13636 5.5,-2.5 0,-2.36364 -0.3,-2.5 -5.5,-2.5 l -5.5,0 0,-3.5 0,-3.5 6.5,0 c 6.26667,0 6.5,-0.0897 6.5,-2.5 0,-2.4815 -0.0667,-2.5 -9,-2.5 l -9,0 z m -78.96875,0.15625 c -1.81502,-0.0557 -2.70741,2.28657 -11.78125,27.59375 -0.28572,0.79689 0.50974,1.25 2.1875,1.25 1.88706,0 2.88096,-0.70741 3.5625,-2.5 0.85501,-2.24886 1.51613,-2.5 6.46875,-2.5 5.03875,0 5.55075,0.21203 6.125,2.5 0.48384,1.92777 1.26164,2.5 3.4375,2.5 l 2.84375,0 -3.03125,-8.25 c -1.66656,-4.5375 -4.00277,-10.95 -5.1875,-14.25 -1.59993,-4.45653 -2.69667,-6.09021 -4.25,-6.3125 -0.13183,-0.0189 -0.254,-0.0275 -0.375,-0.0312 z m -136.59375,0.0312 c -0.55023,0.003 -1.09589,0.027 -1.59375,0.0937 -5.37208,0.72055 -8.03125,3.43199 -8.03125,8.15625 0,4.81747 2.39343,7.31705 7.78125,8.125 4.7294,0.70922 6.7706,2.36049 6.25,5.0625 -0.46801,2.42903 -4.88514,3.33259 -9.125,1.875 -5.5602,-1.91151 -8.46362,2.3056 -2.96875,4.3125 6.31601,2.3068 15.1301,0.52065 16.625,-3.375 2.36525,-6.16376 -0.70695,-11.05605 -7.75,-12.34375 -5.32299,-0.97322 -6.99976,-2.56446 -5.5625,-5.25 1.28191,-2.39527 4.16506,-3.11918 7.4375,-1.875 2.68093,1.01928 5.5,-0.009 5.5,-2 0,-1.39427 -4.71086,-2.80263 -8.5625,-2.78125 z m 249.9375,0 c -0.55891,0.005 -1.11592,0.0255 -1.625,0.0937 -5.24113,0.70298 -7.75,3.54 -7.75,8.78125 0,4.93738 1.73023,6.22518 11.25,8.34375 2.10551,0.46857 2.75,1.20654 2.75,3.125 0,3.55547 -3.8085,4.85111 -9,3.0625 -3.2908,-1.13382 -4.1419,-1.1405 -5.0625,-0.0312 -1.34807,1.62433 -0.43029,3.28042 2.4375,4.4375 5.48088,2.21141 14.56314,0.18189 16,-3.5625 1.19931,-3.12535 0.61974,-8.14642 -1.125,-9.71875 -0.9625,-0.86739 -2.9875,-1.8384 -4.5,-2.15625 -1.5125,-0.31785 -3.875,-0.80827 -5.25,-1.09375 -1.84373,-0.3828 -2.5,-1.16501 -2.5,-2.96875 0,-3.38849 3.21278,-4.99024 7.21875,-3.59375 2.99189,1.04298 5.78125,0.10306 5.78125,-1.9375 0,-1.41277 -4.7126,-2.81456 -8.625,-2.78125 z m -169.0625,4.8125 c 0.32051,-0.0107 0.70984,0 1.125,0 1.88002,0 4.13002,0.2599 5,0.59375 1.86423,0.71537 2.08944,4.47306 0.375,6.1875 -0.66,0.66 -2.91,1.21875 -5,1.21875 -3.7667,0 -3.8125,-0.0351 -3.8125,-4 0,-3.40071 0.069,-3.92514 2.3125,-4 z m 110.6875,0 3.9375,0 c 5.10389,0 7.0625,2.62895 7.0625,9.5 0,2.95669 -0.65198,5.95005 -1.5625,7.25 -1.16114,1.65775 -2.55873,2.25 -5.5,2.25 l -3.9375,0 0,-9.5 0,-9.5 z m -164.75,3.5 1.25,3 c 0.68935,1.65 1.55744,4.0125 1.9375,5.25 0.62977,2.05059 0.38126,2.25 -2.96875,2.25 -3.4039,0 -3.63329,-0.19451 -3.0625,-2.46875 0.33902,-1.35074 1.10549,-3.71324 1.71875,-5.25 l 1.125,-2.78125 z m 110,0 1.25,3 c 0.68935,1.65 1.55744,4.0125 1.9375,5.25 0.62977,2.05059 0.38126,2.25 -2.96875,2.25 -3.4039,0 -3.63329,-0.19451 -3.0625,-2.46875 0.33902,-1.35074 1.10549,-3.71324 1.71875,-5.25 l 1.125,-2.78125 z m -81.25,0.5 c 0.34004,0 1.33933,2.25 2.21875,5 l 1.59375,5 -3.8125,0 -3.8125,0 1.59375,-5 c 0.87942,-2.75 1.87871,-5 2.21875,-5 z"
       id="path3086"
       inkscape:connector-curvature="0" />
    <rect
       style="opacity:0;fill:#800000;fill-opacity:1"
       id="rect3415"
       width="214.28572"
       height="240.6015"
       x="124.06015"
       y="400.48248" />
    <rect
       style="opacity:0;fill:#800000;fill-opacity:1"
       id="rect3477"
       width="297.74435"
       height="54.887218"
       x="351.8797"
       y="444.84338" />
    <path
       style="fill:#10427a;fill-opacity:1"
       d="m 264.77585,331.17908 c -1.33333,0 -2,0.66667 -2,2 0,1.33333 0.66667,2 2,2 1.33333,0 2,-0.66667 2,-2 0,-1.33333 -0.66667,-2 -2,-2 z m 8.99999,0 c -1.33333,0 -1.99999,0.66667 -1.99999,2 0,1.33333 0.66666,2 1.99999,2 1.33334,0 2.00001,-0.66667 2.00001,-2 0,-1.33333 -0.66667,-2 -2.00001,-2 z m -230.999991,8 0,11.0625 c 0,6.08616 0.50044,11.9539 1.09375,13.0625 0.5933,1.1086 2.5058,2.64754 4.25,3.40625 4.064079,1.7681 4.97424,1.77347 9.218749,0 4.939741,-2.06396 6.437501,-6.23684 6.437501,-18 l 0,-9.53125 -3.000001,0 -2.999999,0 0,10.78125 c 0,11.42818 -0.617721,13.21875 -4.625,13.21875 -4.45265,0 -5.375,-2.3437 -5.375,-13.59375 l 0,-10.40625 -2.5,0 -2.5,0 z m 29,0 0,14 0,14 2.46875,0 c 2.405229,0 2.467619,-0.19851 2.75,-8.75 l 0.281249,-8.75 5.75,8.75 c 4.69572,7.17364 6.182001,8.75 8.25,8.75 l 2.500001,0 0,-14 0,-14 -2.437501,0 c -2.405229,0 -2.467619,0.19851 -2.749999,8.75 l -0.3125,8.75 -5.71875,-8.75 c -4.69573,-7.17372 -6.18195,-8.75 -8.25,-8.75 l -2.53125,0 z m 32.000001,0 0,14 0,14 2.5,0 2.5,0 0,-14 0,-14 -2.5,0 -2.5,0 z m 30.53125,0 c -2.2623,0 -2.72943,0.78851 -5.1875,9 -1.48451,4.9592 -3.03576,8.6717 -3.43751,8.25 -0.40173,-0.4217 -1.8012,-4.35 -3.12499,-8.75 -2.20893,-7.34198 -2.6335,-8.04117 -5.21875,-8.34375 -2.01295,-0.23559 -2.69433,0.0498 -2.34375,1 0.40436,1.09596 6.92543,21.06329 8.375,25.65625 0.22916,0.72607 1.36826,1.17607 2.5625,1 1.82496,-0.26907 2.88933,-2.41088 6.53125,-13.3125 2.38322,-7.13387 4.31249,-13.32137 4.31249,-13.75 0,-0.42863 -1.10245,-0.75 -2.46874,-0.75 z m 8.46875,0 0,14 0,14 9.5,0 c 8.83333,0 9.5,-0.14035 9.5,-2 0,-1.80952 -0.66667,-2 -7,-2 l -7,0 0,-4 0,-4 6,0 c 5.33333,0 6,-0.22222 6,-2 0,-1.77778 -0.66667,-2 -6,-2 l -6,0 0,-4 0,-4 7,0 c 6.33333,0 7,-0.19048 7,-2 0,-1.85965 -0.66667,-2 -9.5,-2 l -9.5,0 z m 26,0 0,14 0,14 2.99999,0 c 2.96971,0 3,-0.0556 3,-5.5 0,-4.84324 0.2605,-5.5 2.03126,-5.5 1.44378,0 2.75076,1.55105 4.6875,5.5 2.30955,4.70908 3.10977,5.5 5.5,5.5 1.53541,0 2.78125,-0.26922 2.78125,-0.5625 0,-0.29329 -1.13209,-2.77014 -2.53125,-5.53125 l -2.5625,-5.03125 2.5625,-3.03125 c 2.78507,-3.30986 3.15912,-5.83769 1.375,-9.1875 -2.04803,-3.84532 -4.06643,-4.5921 -12.09376,-4.625 l -7.74999,-0.0312 z m 55,0 0,14 0,14 2.5,0 2.49999,0 0,-14 0,-14 -2.49999,0 -2.5,0 z m 22,0 c -9.33333,0 -10,0.13333 -10,2 0,1.61905 0.66667,2 3.5,2 l 3.5,0 0,12 0,12 3,0 3,0 0,-12 0,-12 3.5,0 c 2.83333,0 3.5,-0.38095 3.5,-2 0,-1.86667 -0.66667,-2 -10,-2 z m 48,0 c -9.33333,0 -10,0.13333 -10,2 0,1.61905 0.66667,2 3.5,2 l 3.5,0 0,12 0,12 2.46874,0 2.46876,0 0.28125,-11.75 0.28125,-11.75 3.75,-0.3125 c 2.93776,-0.24314 3.75,-0.73048 3.75,-2.25 0,-1.7902 -0.77042,-1.9375 -10,-1.9375 z m -87.375,0.0625 c -2.85343,-0.009 -5.69447,0.41643 -6.875,1.3125 -2.91656,2.21379 -4.11899,7.065 -2.5625,10.3125 1.08012,2.25359 2.49673,3.06406 7.3125,4.28125 6.2323,1.57523 7.92182,3.60673 5.46875,6.5625 -1.41429,1.70412 -6.24484,1.89969 -9.09375,0.375 -1.45473,-0.77855 -2.392,-0.74269 -3.4375,0.125 -2.1902,1.8177 -1.74748,2.92144 1.8125,4.46875 4.17488,1.81455 7.01111,1.82056 11.21875,0.0625 3.85879,-1.6123 5.53125,-4.1391 5.53125,-8.34375 0,-3.69961 -2.68443,-6.15258 -8.125,-7.375 -6.64473,-1.49297 -8.2074,-3.3551 -5.28125,-6.28125 1.86298,-1.86298 6.5136,-2.08015 8.21875,-0.375 0.94286,0.94286 1.57622,0.81862 2.9375,-0.5625 1.65771,-1.68187 1.65879,-1.81891 -0.1875,-3.1875 -1.21907,-0.90364 -4.08408,-1.36599 -6.9375,-1.375 z m 62.5,0.125 c -1.62086,0.1896 -2.54163,2.29793 -6.37501,13.03125 -2.6125,7.31493 -4.75,13.63081 -4.75,14.03125 0,0.40045 1.05705,0.75 2.34376,0.75 1.52504,0 2.72622,-0.87033 3.46875,-2.5 0.99596,-2.1859 1.77532,-2.5 6.1875,-2.5 4.46247,0 5.15945,0.28919 6,2.5 0.66746,1.75555 1.69581,2.5 3.46875,2.5 1.38861,0 2.53125,-0.15642 2.53125,-0.3125 0,-0.15607 -2.18295,-6.34357 -4.875,-13.75 -4.26953,-11.74635 -5.19548,-13.47629 -7.25001,-13.71875 -0.27154,-0.0321 -0.51844,-0.0584 -0.74999,-0.0312 z m -92.06251,3.8125 c 0.27952,-0.013 0.5764,0 0.93751,0 3.99114,0 7.43189,3.31626 6.0625,5.875 -0.54733,1.02269 -1.70849,2.16029 -2.59375,2.5 -0.88526,0.33971 -2.70123,0.625 -4.03125,0.625 -2.19936,0 -2.43751,-0.40725 -2.43751,-4.5 0,-3.79166 0.1059,-4.40885 2.0625,-4.5 z m 92.90626,5 c 0.35796,0 1.37058,2.25 2.25,5 l 1.59375,5 -3.96875,0 c -2.80291,0 -3.83277,-0.3722 -3.46876,-1.25 0.28511,-0.6875 1.04596,-2.9375 1.71876,-5 0.6728,-2.0625 1.51704,-3.75 1.875,-3.75 z"
       id="path3086-7"
       inkscape:connector-curvature="0" />
    <path
       style="fill:#10427a;fill-opacity:1"
       d="m 325.847,338.3048 0,14.59375 0,14.625 7.5,-0.40625 c 6.54658,-0.33059 7.85705,-0.7008 10.21875,-3.0625 2.24936,-2.24937 2.75334,-3.77904 3.09375,-9.125 0.80735,-12.67921 -2.56618,-16.625 -14.25,-16.625 l -6.5625,0 z m 28,0 0,13.8125 c 0,7.60834 0.32083,14.13334 0.6875,14.5 0.36666,0.36667 4.64166,0.6875 9.5,0.6875 8.75553,0 8.8125,-0.022 8.8125,-2.5 0,-2.4103 -0.23333,-2.5 -6.5,-2.5 l -6.5,0 0,-4 0,-4 5.5,0 c 4.83333,0 5.5,-0.24242 5.5,-2 0,-1.75758 -0.66667,-2 -5.5,-2 l -5.5,0 0,-3.5 0,-3.5 6.5,0 c 6.26667,0 6.5,-0.0897 6.5,-2.5 0,-2.491 -0.0333,-2.5 -9.5,-2.5 l -9.5,0 z m 33.84375,0.0625 c -2.37409,0.0155 -3.46661,0.55974 -5.25,2.09375 -2.14202,1.84249 -2.78125,3.27006 -2.78125,6.21875 0,4.89609 1.64887,6.49355 8.3125,7.96875 4.48297,0.99244 5.43791,1.59263 5.71875,3.5625 0.18562,1.30197 -0.26438,2.72122 -1,3.1875 -1.99644,1.26545 -8.27569,1.06806 -9.65625,-0.3125 -0.94286,-0.94286 -1.55406,-0.85219 -2.8125,0.40625 -1.84023,1.84023 -1.11351,3.55627 2,4.8125 5.08145,2.05025 13.84148,0.32843 15.65625,-3.0625 0.53839,-1.00599 0.96875,-3.39126 0.96875,-5.3125 0,-4.10857 -3.66466,-7.625 -7.9375,-7.625 -5.50686,0 -7.99257,-4.76233 -3.84375,-7.375 1.25739,-0.79182 2.60348,-0.76779 4.96875,0.125 2.7008,1.01944 3.51076,0.98924 4.75,-0.25 2.25125,-2.25125 0.0564,-3.76087 -6.21875,-4.28125 -1.14378,-0.0948 -2.08364,-0.16141 -2.875,-0.15625 z m -56.84375,4.9375 3.875,0 c 2.3907,0 4.40378,0.63484 5.25,1.65625 1.81693,2.19321 1.82176,13.49242 0,15.6875 -0.82736,0.99691 -2.88286,1.65625 -5.25,1.65625 l -3.875,0 0,-9.5 0,-9.5 z"
       id="path3086-1"
       inkscape:connector-curvature="0" />
    <g
       id="layer1-1"
       transform="matrix(0.416025,0,0,0.416025,-140.34855,134.77238)"
       style="fill:#10427a;fill-opacity:1">
      <path
         style="fill:#10427a;fill-opacity:1"
         id="path3086-19"
         d="m 205.625,427.46875 c -8.44994,0 -9.83048,0.23589 -10.25,1.75 -0.26668,0.9625 -1.27466,12.18923 -2.25,24.96875 l -1.78125,23.25 -4.9375,-5.53125 c -6.4946,-7.28679 -13.28083,-10.77595 -21.1875,-10.84375 -7.26101,-0.0623 -12.91675,2.42253 -15.59375,6.8125 -1.78364,2.92498 -1.90225,6.162 -1.90625,64.46875 l 0,61.40625 8.34375,-0.65625 c 11.51117,-0.88482 23.13135,-5.11345 31.4375,-11.4375 l 3.3125,-2.5 -0.3125,10.40625 -0.28125,10.40625 -9.25,0.28125 -9.25,0.28125 -3,5.9375 c -1.64749,3.26364 -3,6.17807 -3,6.46875 0,1.34885 3.44322,0.29126 6.40625,-1.96875 2.52103,-1.92289 4.48555,-2.5 8.46875,-2.5 l 5.1875,0 -1.5625,2.34375 c -0.85535,1.30543 -1.82232,4.68043 -2.15625,7.5 -0.86004,7.26168 0.99631,6.80846 9.1875,-2.34375 l 6.71875,-7.5 11.21875,0 c 10.65702,0 11.29711,0.12186 13.53125,2.5 1.29175,1.375 2.99249,2.5 3.78125,2.5 1.48077,0 1.44415,-0.40404 -0.875,-9.25 l -0.96875,-3.75 -9.0625,0 c -4.97464,0 -8.87083,-0.40365 -8.6875,-0.875 0.18333,-0.47135 2.40974,-3.17135 4.96875,-6 l 4.65625,-5.125 17.8125,0 17.8125,0 5.28125,5.1875 c 2.9048,2.86871 5.28125,5.56871 5.28125,6 0,0.43129 -3.99528,0.8125 -8.90625,0.8125 l -8.9375,0 -1.5625,5.375 c -0.86403,2.97215 -1.59375,5.89715 -1.59375,6.5 0,1.97019 2.83331,1.18053 4.84375,-1.375 1.89281,-2.4063 2.36614,-2.5 13.375,-2.5 l 11.4375,0 6.75,7.5 c 8.2255,9.15422 10.151,9.63816 9.1875,2.375 -0.37283,-2.81052 -1.38871,-6.18552 -2.25,-7.5 l -1.5625,-2.375 5.28125,0 c 4.08128,0 5.9932,0.56414 8.53125,2.5 2.96302,2.26001 6.40625,3.3176 6.40625,1.96875 0,-0.29068 -1.35252,-3.20511 -3,-6.46875 l -2.96875,-5.9375 -9.28125,-0.28125 -9.25,-0.28125 -0.28125,-10.40625 -0.28125,-10.40625 2.28125,1.65625 c 10.35518,7.4665 20.87533,11.40193 33.03125,12.34375 l 7.75,0.59375 0,-61.40625 c -0.004,-58.30743 -0.0913,-61.54377 -1.875,-64.46875 -4.44046,-7.28185 -17.34537,-9.12971 -27,-3.875 -4.8846,2.65854 -13.125,10.55625 -13.125,12.59375 0,0.47256 -0.36746,0.875 -0.8125,0.875 -0.44504,0 -1.80239,-10.2375 -3.03125,-22.75 -1.22886,-12.5125 -2.45717,-23.7625 -2.71875,-25 -0.45444,-2.14986 -0.88946,-2.25495 -10.1875,-2.21875 l -9.75,0.0312 -3.78125,5.46875 -3.78125,5.46875 -11.34375,0 -11.34375,0 -3.78125,-5.5 -3.78125,-5.5 -9.78125,0 z m 10.96875,21.46875 c 7.63545,-0.11986 15.13682,5.3449 15.9375,15 0.51291,6.18507 -1.29607,10.26171 -6.15625,13.96875 -13.46502,10.27027 -31.85239,-5.65638 -23.5625,-20.40625 3.24946,-5.78162 8.557,-8.48049 13.78125,-8.5625 z m 34.8125,0.125 c 3.84958,-0.25849 7.76716,1.05948 11.1875,3.9375 4.01043,3.37456 6.43209,9.72537 5.59375,14.6875 -0.78362,4.63821 -5.56867,10.48943 -10.15625,12.40625 -6.15378,2.57121 -11.65575,1.31946 -17.0625,-3.90625 -6.39179,-6.17777 -6.56144,-15.22204 -0.375,-21.71875 3.16142,-3.31998 6.96292,-5.14776 10.8125,-5.40625 z m -35,4.34375 c -2.58898,0.13572 -5.06627,1.29046 -7.375,3.40625 -3.16491,2.90043 -3.625,3.9472 -3.625,7.84375 0,4.84925 1.9039,8.43689 5.5625,10.46875 3.15596,1.75272 9.87305,1.64312 12.53125,-0.21875 2.66384,-1.86583 5.21875,-6.52073 5.21875,-9.5 0,-3.59625 -3.08433,-8.95993 -6.0625,-10.5 -2.12726,-1.10005 -4.23635,-1.60556 -6.25,-1.5 z m 34.09375,0.5625 c -3.62907,0.099 -4.52969,0.66011 -6.84375,3.25 -2.32468,2.60177 -2.9375,4.1916 -2.9375,7.84375 0,3.88009 0.52849,5.12223 3.40625,8 2.90213,2.90213 4.08199,3.40625 8.09375,3.40625 4.01176,0 5.19162,-0.50412 8.09375,-3.40625 2.87777,-2.87777 3.40625,-4.11991 3.40625,-8 0,-3.65215 -0.58157,-5.24198 -2.90625,-7.84375 -2.64464,-2.95987 -3.46025,-3.25 -8.59375,-3.25 -0.64169,0 -1.20031,-0.0141 -1.71875,0 z m 1.96875,4.1875 c 2.12351,0.029 4.19141,1.2759 5.8125,3.75 1.43477,2.18974 1.49701,2.99167 0.40625,5.625 -0.70127,1.69302 -2.36258,3.49627 -3.6875,4 -2.80754,1.06738 -3.10267,1.05859 -5.875,-0.0625 -1.15003,-0.46506 -2.6563,-2.26489 -3.375,-4 -1.15665,-2.79239 -1.08211,-3.43226 0.625,-5.71875 1.81221,-2.42727 3.97024,-3.62271 6.09375,-3.59375 z M 216.5,458.25 c 6.92503,-0.1969 9.98502,7.88423 4.59375,12.125 -3.46016,2.72177 -5.90762,2.62364 -8.90625,-0.375 -4.56984,-4.56983 -1.99673,-11.57062 4.3125,-11.75 z m -48.78125,16.0625 2.25,0.3125 2.25,0.34375 0.25,48 c 0.18578,37.07764 -0.0554,48.56887 -1.03125,50.5 -1.6368,3.2391 -6.59368,3.88098 -9.03125,1.1875 -1.56971,-1.73451 -1.67609,-5.80582 -1.4375,-50.28125 0.25566,-47.65731 0.28112,-48.40625 2.25,-48.40625 1.96006,0 2.02446,0.75401 2.28125,37.75 0.1667,24.01687 0.62144,37.75 1.25,37.75 0.63356,0 0.96875,-13.86035 0.96875,-38.59375 l 0,-38.5625 z m 134,0 0,38.5625 c 0,24.7334 0.36645,38.59375 1,38.59375 0.62856,0 1.0833,-13.73313 1.25,-37.75 0.2568,-36.99599 0.28995,-37.75 2.25,-37.75 1.96888,0 2.02559,0.74894 2.28125,48.40625 0.23595,43.98274 0.10618,48.57878 -1.40625,50.25 -2.07007,2.2874 -6.67207,2.38928 -8.5,0.1875 -1.12217,-1.35169 -1.375,-10.60606 -1.375,-50.75 l 0,-49.09375 2.25,-0.34375 2.25,-0.3125 z m -67.34375,4.625 c 0.82126,2.5e-4 1.70889,0.39289 2.84375,1.21875 3.1015,2.2568 3.09608,3.23393 0,9.34375 -1.38427,2.73172 -2.68831,4.96875 -2.875,4.96875 -0.18669,0 -1.4837,-2.57462 -2.90625,-5.71875 -2.71326,-5.99699 -2.52442,-7.26918 1.46875,-9.40625 0.50969,-0.27278 0.97599,-0.4064 1.46875,-0.40625 z m -50.65625,4.375 0,34.5625 c 0,22.3797 0.35262,34.59375 1,34.59375 0.64392,0 1,-10.44583 1,-29.3125 0,-29.57936 0.31893,-32.2999 3.625,-31.03125 1.13522,0.43563 1.375,6.83589 1.375,36.21875 0,30.66613 -0.22419,35.9643 -1.5625,37.875 -1.77797,2.53841 -5.16157,2.88732 -8,0.8125 -1.86663,-1.36446 -1.9375,-2.98567 -1.9375,-42.25 l 0,-40.8125 2.25,-0.34375 2.25,-0.3125 z m 102,0 2.25,0.3125 2.25,0.34375 0,40.8125 c 0,39.26433 -0.0709,40.88554 -1.9375,42.25 -2.83843,2.07482 -6.22203,1.72591 -8,-0.8125 -1.33727,-1.90922 -1.5625,-7.1754 -1.5625,-37.375 0,-27.94926 0.2913,-35.37654 1.34375,-36.25 3.2719,-2.71544 3.65625,0.65361 3.65625,30.5625 0,18.86667 0.35609,29.3125 1,29.3125 0.64738,0 1,-12.21405 1,-34.59375 l 0,-34.5625 z m -76,20.15625 c 1.9052,0 2,0.66343 2,14.0625 0,7.78353 -0.45841,14.92965 -1.03125,16 -1.2745,2.38142 -6.14507,2.57368 -8.375,0.34375 -1.28405,-1.28405 -1.59375,-4.21572 -1.59375,-16.0625 0,-14.4631 0.005,-14.50628 2.25,-14.1875 2.08494,0.29611 2.28668,0.96731 2.75,8.84375 0.58322,9.91462 2,8.42794 2,-2.09375 0,-6.25154 0.19273,-6.90625 2,-6.90625 z m 56,0 c 1.9052,0 2,0.66343 2,14.0625 0,7.78353 -0.45842,14.92965 -1.03125,16 -1.2745,2.38142 -6.14507,2.57368 -8.375,0.34375 -1.28405,-1.28405 -1.59375,-4.21572 -1.59375,-16.0625 0,-14.4631 0.005,-14.50628 2.25,-14.1875 2.08494,0.29611 2.28668,0.96731 2.75,8.84375 0.58321,9.91462 2,8.42794 2,-2.09375 0,-6.25154 0.19273,-6.90625 2,-6.90625 z M 227.625,508.6875 c 0.45498,-0.0173 1.00158,0.26918 1.65625,0.8125 1.14213,0.94789 1.4375,4.07015 1.4375,14.5625 0,12.04423 -0.19934,13.60559 -2,15.40625 -2.55454,2.55453 -5.45927,2.54072 -8.03125,-0.0312 -1.87546,-1.87547 -2.00652,-3.09242 -1.75,-16.25 0.26249,-13.46361 0.388,-14.21875 2.28125,-14.21875 1.81492,0 2.04893,0.76348 2.3125,8.25 0.37216,10.57134 2.1875,10.80054 2.1875,0.28125 0,-6.07618 0.5413,-8.76055 1.90625,-8.8125 z m 13.1875,0.0312 c 1.39647,0.0106 1.90625,2.65652 1.90625,8.78125 0,10.51929 1.84658,10.29009 2.21875,-0.28125 0.26356,-7.48652 0.46634,-8.25 2.28125,-8.25 1.89326,0 2.01876,0.75515 2.28125,14.21875 0.25652,13.15758 0.12547,14.37453 -1.75,16.25 -2.6004,2.60036 -5.22376,2.5555 -7.625,-0.0937 -1.63021,-1.7986 -1.94143,-4.00421 -2.21875,-15.3125 -0.26779,-10.91978 -0.077,-13.41928 1.1875,-14.46875 0.67369,-0.55911 1.25326,-0.84729 1.71875,-0.84375 z m -37.96875,32.9375 c 0.39936,0.0703 0.88357,0.38403 1.4375,0.84375 1.04048,0.86353 1.4375,3.36691 1.4375,8.78125 0,9.85237 1.81273,8.345 2.21875,-1.84375 0.23377,-5.86615 0.60784,-7.46875 1.78125,-7.46875 1.25095,0 1.54915,2.37427 1.78125,14.375 0.23868,12.34072 0.0373,14.65486 -1.40625,16.25 -2.05301,2.26855 -4.21961,2.3694 -7.15625,0.3125 -2.12152,-1.48597 -2.21875,-2.20681 -2.21875,-15.9375 0,-11.79048 0.39445,-15.61737 2.125,-15.3125 z m 56,0 c 0.39936,0.0703 0.88357,0.38403 1.4375,0.84375 1.04049,0.86353 1.4375,3.36691 1.4375,8.78125 0,9.85237 1.81272,8.345 2.21875,-1.84375 0.23377,-5.86615 0.60784,-7.46875 1.78125,-7.46875 1.25095,0 1.54915,2.37427 1.78125,14.375 0.23868,12.34072 0.0373,14.65486 -1.40625,16.25 -2.05301,2.26855 -4.21961,2.3694 -7.15625,0.3125 -2.12152,-1.48597 -2.21875,-2.20681 -2.21875,-15.9375 0,-11.79048 0.39445,-15.61737 2.125,-15.3125 z M 240.75,547.4687 c 1.80829,0 1.96875,0.68864 1.96875,7.9375 0,10.76802 1.8455,11.46937 2.21875,0.84375 0.26416,-7.52003 0.46563,-8.28125 2.28125,-8.28125 1.89274,0 2.01924,0.73224 2.28125,14.125 0.23251,11.88487 0.0298,14.40774 -1.3125,15.75 -2.07837,2.07834 -6.84594,2.07024 -8.59375,-0.0312 -0.94585,-1.13724 -1.45608,-5.36515 -1.6875,-13.59375 -0.39232,-13.94906 0.0753,-16.75 2.84375,-16.75 z m -19.53125,0.5 c 1.81492,0 2.04893,0.76348 2.3125,8.25 0.15974,4.5375 0.68199,8.25 1.1875,8.25 0.50552,0 1.05901,-3.7125 1.21875,-8.25 0.26357,-7.48652 0.46634,-8.25 2.28125,-8.25 1.8864,0 2.01722,0.75513 2.28125,13.375 0.22508,10.75823 -0.0325,13.84425 -1.28125,15.75 -1.05368,1.60812 -2.49581,2.375 -4.5,2.375 -5.20204,0 -6.10145,-2.82036 -5.78125,-18.125 0.26403,-12.61987 0.39485,-13.375 2.28125,-13.375 z"
         inkscape:connector-curvature="0" />
    </g>
    <text
       xml:space="preserve"
       style="font-size:64px;font-style:normal;font-variant:normal;font-weight:normal;font-stretch:normal;line-height:125%;letter-spacing:0px;word-spacing:0px;fill:#000000;fill-opacity:1;stroke:none;font-family:Arial;-inkscape-font-specification:Arial"
       x="-169.28186"
       y="369.72379"
       id="text3580"
       sodipodi:linespacing="125%"><tspan
         sodipodi:role="line"
         id="tspan3582"
         x="-169.28186"
         y="369.72379"> p(      |                                      )</tspan></text>
  </g>
</svg>
