<?xml version="1.0" encoding="UTF-8" standalone="no"?>
<!-- Created with Inkscape (http://www.inkscape.org/) -->

<svg
   xmlns:dc="http://purl.org/dc/elements/1.1/"
   xmlns:cc="http://creativecommons.org/ns#"
   xmlns:rdf="http://www.w3.org/1999/02/22-rdf-syntax-ns#"
   xmlns:svg="http://www.w3.org/2000/svg"
   xmlns="http://www.w3.org/2000/svg"
   version="1.1"
   width="490.00995"
   height="195.89929"
   id="svg2">
  <defs
     id="defs4" />
  <metadata
     id="metadata7">
    <rdf:RDF>
      <cc:Work
         rdf:about="">
        <dc:format>image/svg+xml</dc:format>
        <dc:type
           rdf:resource="http://purl.org/dc/dcmitype/StillImage" />
        <dc:title></dc:title>
      </cc:Work>
    </rdf:RDF>
  </metadata>
  <g
     transform="translate(-207.87725,-485.34809)"
     id="layer1">
    <path
       d="m 242.20583,676.22161 c 0.33393,-2.81957 1.30699,-6.19457 2.16234,-7.5 l 1.55519,-2.37352 -5.17866,0 c -3.9832,0 -5.9353,0.57711 -8.45633,2.5 -2.96303,2.26001 -6.41112,3.32033 -6.41112,1.97148 0,-0.29068 1.34794,-3.19877 2.99543,-6.46241 l 2.99542,-5.9339 9.25458,-0.28758 9.25457,-0.28759 0.28661,-10.39661 0.2866,-10.3966 -3.2866,2.50232 c -8.30615,6.32405 -19.95519,10.56158 -31.46636,11.4464 l -8.32025,0.63954 0.004,-61.39752 c 0.004,-58.30675 0.0983,-61.55258 1.88194,-64.47756 2.677,-4.38997 8.35331,-6.86183 15.61432,-6.79955 7.90667,0.0678 14.69608,3.5351 21.19068,10.82189 l 4.92765,5.5287 1.77335,-23.23551 c 0.97534,-12.77952 1.99154,-24.023 2.25822,-24.9855 0.41952,-1.51411 1.80133,-1.75 10.25127,-1.75 l 9.7664,0 3.78799,5.5 3.788,5.5 11.33573,0 11.33573,0 3.79249,-5.46206 3.79249,-5.46205 9.73095,-0.0379 c 9.29804,-0.0362 9.7521,0.0622 10.20654,2.21206 0.26158,1.2375 1.48103,12.4875 2.70989,25 1.22886,12.5125 2.59841,22.75 3.04345,22.75 0.44504,0 0.80917,-0.38665 0.80917,-0.85921 0,-2.0375 8.22598,-9.94592 13.11058,-12.60446 9.65463,-5.25471 22.56328,-3.39821 27.00374,3.88364 1.78366,2.92498 1.87839,6.17082 1.88194,64.47825 l 0.004,61.39821 -7.75,-0.60046 c -12.15592,-0.94182 -22.68142,-4.87329 -33.0366,-12.33979 l -2.2866,-1.64872 0.2866,10.39627 0.2866,10.39627 9.25458,0.28759 9.25458,0.28758 2.99542,5.9339 c 1.64748,3.26364 2.99542,6.17173 2.99542,6.46241 0,1.34885 -3.44809,0.28853 -6.41111,-1.97148 -2.53805,-1.93586 -4.46701,-2.5 -8.54829,-2.5 l -5.27062,0 1.56597,2.38998 c 0.86129,1.31448 1.87101,4.68948 2.24384,7.5 0.9635,7.26316 -0.95249,6.76424 -9.17799,-2.38998 l -6.73911,-7.5 -11.43742,0 c -11.00886,0 -11.51112,0.0937 -13.40393,2.5 -2.01044,2.55553 -4.8216,3.3741 -4.8216,1.40391 0,-0.60285 0.70693,-3.52785 1.57096,-6.5 l 1.57096,-5.40391 8.92904,0 c 4.91097,0 8.92904,-0.35287 8.92904,-0.78416 0,-0.43129 -2.37665,-3.13129 -5.28145,-6 l -5.28144,-5.21584 -17.81579,0 -17.81579,0 -4.65277,5.143 c -2.55901,2.82865 -4.80276,5.52865 -4.98609,6 -0.18333,0.47135 3.73682,0.857 8.71146,0.857 l 9.04479,0 0.98314,3.75 c 2.31915,8.84596 2.35744,9.25 0.87667,9.25 -0.78876,0 -2.49098,-1.125 -3.78273,-2.5 -2.23414,-2.37814 -2.89472,-2.5 -13.55174,-2.5 l -11.20312,0 -6.71246,7.5 c -8.19119,9.15221 -10.06414,9.6352 -9.2041,2.37352 z m 47.1783,-41.24367 c 1.2487,-1.90575 1.49813,-4.99177 1.27305,-15.75 -0.26403,-12.61987 -0.39353,-13.37985 -2.27993,-13.37985 -1.81491,0 -2.02687,0.76348 -2.29044,8.25 -0.15974,4.5375 -0.70404,8.25 -1.20956,8.25 -0.50551,0 -1.04981,-3.7125 -1.20955,-8.25 -0.26357,-7.48652 -0.47553,-8.25 -2.29045,-8.25 -1.8864,0 -2.0159,0.75998 -2.27993,13.37985 -0.3202,15.30464 0.57789,18.12015 5.77993,18.12015 2.00419,0 3.4532,-0.76203 4.50688,-2.37015 z m 18.94855,0.77186 c 1.34227,-1.34226 1.55394,-3.86513 1.32143,-15.75 -0.26201,-13.39276 -0.38412,-14.15171 -2.27686,-14.15171 -1.81562,0 -2.02683,0.76366 -2.29099,8.28369 -0.37325,10.62562 -2.20901,9.92531 -2.20901,-0.84271 0,-7.24886 -0.17265,-7.94098 -1.98094,-7.94098 -2.7684,0 -3.24718,2.81072 -2.85486,16.75978 0.23142,8.2286 0.7624,12.45282 1.70825,13.59006 1.74781,2.10149 6.50461,2.13024 8.58298,0.0519 z m -76.73772,-4.40171 c 0.97584,-1.93113 1.20858,-13.42236 1.0228,-50.5 l -0.24051,-48 -2.25,-0.31955 -2.25,-0.31955 0,38.56955 c 0,24.7334 -0.35441,38.56955 -0.98797,38.56955 -0.62856,0 -1.0833,-13.73313 -1.25,-37.75 -0.25679,-36.99599 -0.30197,-37.75 -2.26203,-37.75 -1.96888,0 -2.00404,0.75323 -2.2597,48.41054 -0.23859,44.47543 -0.12081,48.56401 1.4489,50.29852 2.43757,2.69348 7.39171,2.03004 9.02851,-1.20906 z m 135.637,1.16054 c 1.51243,-1.67122 1.64094,-6.26726 1.40499,-50.25 -0.25566,-47.65731 -0.29082,-48.41054 -2.2597,-48.41054 -1.96005,0 -2.00523,0.75401 -2.26203,37.75 -0.1667,24.01687 -0.62144,37.75 -1.25,37.75 -0.63355,0 -0.98797,-13.83615 -0.98797,-38.56955 l 0,-38.56955 -2.25,0.31955 -2.25,0.31955 0,49.09686 c 0,40.14394 0.25027,49.39831 1.37244,50.75 1.82793,2.20178 6.4122,2.10108 8.48227,-0.18632 z m -96.98138,-2.02056 c 1.44358,-1.59514 1.64366,-3.90928 1.40498,-16.25 -0.2321,-12.00073 -0.52736,-14.38998 -1.77831,-14.38998 -1.17341,0 -1.56506,1.63268 -1.79883,7.49883 -0.40602,10.18875 -2.20117,11.67598 -2.20117,1.82361 0,-5.41434 -0.41571,-7.92256 -1.45619,-8.78609 -2.95429,-2.45184 -3.54381,-0.0454 -3.54381,14.46596 0,13.73069 0.10099,14.45502 2.22251,15.94099 2.93664,2.0569 5.09781,1.96523 7.15082,-0.30332 z m 55.99999,0 c 1.44358,-1.59514 1.64367,-3.90928 1.40499,-16.25 -0.2321,-12.00073 -0.52736,-14.38998 -1.77831,-14.38998 -1.17341,0 -1.56506,1.63268 -1.79883,7.49883 -0.40603,10.18875 -2.20117,11.67598 -2.20117,1.82361 0,-5.41434 -0.41571,-7.92256 -1.4562,-8.78609 -2.95429,-2.45184 -3.5438,-0.0454 -3.5438,14.46596 0,13.73069 0.10099,14.45502 2.22251,15.94099 2.93664,2.0569 5.0978,1.96523 7.15081,-0.30332 z m -76.93002,-6.36249 c 1.33831,-1.9107 1.5567,-7.22688 1.5567,-37.89301 0,-29.38286 -0.24292,-35.76372 -1.37814,-36.19935 -3.30607,-1.26865 -3.62186,1.43551 -3.62186,31.01487 0,18.86667 -0.35608,29.3 -1,29.3 -0.64738,0 -1,-12.18985 -1,-34.56955 l 0,-34.56955 -2.25,0.31955 -2.25,0.31955 0,40.83108 c 0,39.26433 0.0745,40.88554 1.94113,42.25 2.83843,2.07482 6.2242,1.73482 8.00217,-0.80359 z m 99.11557,0.80359 c 1.86665,-1.36446 1.94113,-2.98567 1.94113,-42.25 l 0,-40.83108 -2.25,-0.31955 -2.25,-0.31955 0,34.56955 c 0,22.3797 -0.35262,34.56955 -1,34.56955 -0.64391,0 -1,-10.43333 -1,-29.3 0,-29.90889 -0.40431,-33.2692 -3.67621,-30.55376 -1.05245,0.87346 -1.32379,8.30444 -1.32379,36.2537 0,30.1996 0.21943,35.46833 1.5567,37.37755 1.77797,2.53841 5.16374,2.87841 8.00217,0.80359 z m -59.55887,-27.58108 c 1.80066,-1.80066 2,-3.33333 2,-15.37756 0,-10.49235 -0.31406,-13.6382 -1.45619,-14.58609 -2.61867,-2.1733 -3.54381,-0.0789 -3.54381,8.02267 0,10.51929 -1.83739,10.26232 -2.20955,-0.30902 -0.26357,-7.48652 -0.47553,-8.25 -2.29045,-8.25 -1.89325,0 -2.0148,0.7591 -2.27729,14.22271 -0.25652,13.15758 -0.12546,14.37453 1.75,16.25 2.57198,2.57197 5.47275,2.58183 8.02729,0.0273 z m 19.02729,-0.0273 c 1.87547,-1.87547 2.00652,-3.09242 1.75,-16.25 -0.26249,-13.4636 -0.38403,-14.2227 -2.27729,-14.2227 -1.81491,0 -2.02688,0.76348 -2.29044,8.25 -0.37217,10.57134 -2.20956,10.82831 -2.20956,0.30902 0,-8.16631 -0.92311,-10.19765 -3.61786,-7.9612 -1.26454,1.04947 -1.47399,3.56456 -1.2062,14.48434 0.27732,11.30829 0.59884,13.51749 2.22905,15.31609 2.40124,2.64925 5.0219,2.67486 7.6223,0.0745 z m -37.06247,-5.90696 c 0.57284,-1.07035 1.03518,-8.21647 1.03518,-16 0,-13.39907 -0.0948,-14.06574 -2,-14.06574 -1.80727,0 -2,0.66667 -2,6.91821 0,10.52169 -1.41678,11.99641 -2,2.08179 -0.46332,-7.87644 -0.66506,-8.52344 -2.75,-8.81955 -2.24456,-0.31878 -2.25,-0.28453 -2.25,14.17857 0,11.84678 0.28738,14.7855 1.57143,16.06955 2.22993,2.22993 7.11889,2.01859 8.39339,-0.36283 z m 56,0 c 0.57283,-1.07035 1.03518,-8.21647 1.03518,-16 0,-13.39907 -0.0948,-14.06574 -2,-14.06574 -1.80727,0 -2,0.66667 -2,6.91821 0,10.52169 -1.41679,11.99641 -2,2.08179 -0.46332,-7.87644 -0.66506,-8.52344 -2.75,-8.81955 -2.24457,-0.31878 -2.25,-0.28453 -2.25,14.17857 0,11.84678 0.28738,14.7855 1.57143,16.06955 2.22993,2.22993 7.11889,2.01859 8.39339,-0.36283 z m -29.48166,-44.0325 c 3.09608,-6.10982 3.0955,-7.0664 -0.006,-9.3232 -1.81577,-1.32138 -2.94164,-1.53201 -4.30082,-0.80459 -3.99317,2.13707 -4.1889,3.38096 -1.47564,9.37795 1.42255,3.14413 2.73918,5.7166 2.92587,5.7166 0.18669,0 1.47202,-2.23504 2.85629,-4.96676 z m -10.82298,-11.58761 c 4.86018,-3.70704 6.64386,-7.76577 6.13095,-13.95084 -1.34851,-16.26122 -21.69855,-20.67979 -29.69721,-6.4481 -8.28989,14.74987 10.10124,30.66921 23.56626,20.39894 z m -15.41879,-2.77086 c -3.6586,-2.03186 -5.57472,-5.63572 -5.57472,-10.48497 0,-3.89655 0.48707,-4.94258 3.65198,-7.84301 4.1044,-3.7614 8.73387,-4.40523 13.59617,-1.89084 2.97817,1.54007 6.08518,6.89859 6.08518,10.49484 0,2.97927 -2.55295,7.62268 -5.21679,9.48851 -2.6582,1.86187 -9.38586,1.98819 -12.54182,0.23547 z m 10.12375,-4.74735 c 5.39127,-4.24077 2.32069,-12.33658 -4.60434,-12.13968 -6.30923,0.17938 -8.87609,7.18788 -4.30625,11.75771 2.99863,2.99864 5.45043,3.10374 8.91059,0.38197 z m 36.9326,9.72154 c 4.58758,-1.91682 9.37648,-7.76119 10.1601,-12.3994 0.83834,-4.96213 -1.58853,-11.3403 -5.59896,-14.71486 -6.84068,-5.75604 -15.65725,-5.16403 -21.98009,1.47592 -6.18644,6.49671 -6.0399,15.54168 0.35189,21.71945 5.40675,5.22571 10.91328,6.4901 17.06706,3.91889 z m -13.89774,-7.04896 c -2.87776,-2.87777 -3.4,-4.10413 -3.4,-7.98422 0,-3.65215 0.59329,-5.24823 2.91797,-7.85 2.64464,-2.95987 3.44853,-3.26578 8.58203,-3.26578 5.1335,0 5.93739,0.30591 8.58203,3.26578 2.32468,2.60177 2.91797,4.19785 2.91797,7.85 0,3.88009 -0.52223,5.10645 -3.4,7.98422 -2.90213,2.90213 -4.08824,3.4 -8.1,3.4 -4.01176,0 -5.19787,-0.49787 -8.1,-3.4 z m 10.87873,-1.51588 c 1.32492,-0.50373 2.98271,-2.30107 3.68398,-3.99409 1.09076,-2.63333 1.03264,-3.44818 -0.40213,-5.63792 -3.24218,-4.94819 -8.30291,-5.01722 -11.92734,-0.16269 -1.70711,2.28649 -1.77855,2.94556 -0.6219,5.73795 0.7187,1.73511 2.24767,3.53524 3.3977,4.0003 2.77233,1.12109 3.06215,1.12388 5.86969,0.0565 z m 115.47127,119.7536 c -5.49487,-2.0069 -2.59783,-6.2373 2.96237,-4.32579 4.23986,1.45759 8.6522,0.54714 9.12021,-1.88189 0.5206,-2.70201 -1.52024,-4.35611 -6.24964,-5.06533 -5.38782,-0.80795 -7.78294,-3.3087 -7.78294,-8.12617 0,-4.72426 2.6623,-7.4226 8.03438,-8.14315 3.98289,-0.53422 10.16562,1.11004 10.16562,2.70349 0,1.99093 -2.82952,3.01643 -5.51045,1.99715 -3.27244,-1.24418 -6.13893,-0.51969 -7.42084,1.87558 -1.43726,2.68554 0.23259,4.25785 5.55558,5.23107 7.04305,1.2877 10.11978,6.18876 7.75453,12.35252 -1.4949,3.89565 -10.31281,5.68932 -16.62882,3.38252 z m 22.81679,-1.08772 c 0.38586,-1.2375 2.72303,-7.78635 5.19372,-14.553 6.09748,-16.69961 6.79546,-16.57039 13.78973,2.553 l 5.21185,14.25 -2.86199,0 c -2.21881,0 -3.00301,-0.56184 -3.48946,-2.5 -0.57267,-2.28173 -1.10036,-2.5 -6.0438,-2.5 -4.8573,0 -5.51445,0.25804 -6.36684,2.5 -0.67647,1.77924 -1.69782,2.5 -3.54264,2.5 -2.22934,0 -2.49395,-0.31491 -1.89057,-2.25 z m 14.87697,-10 c -0.38006,-1.2375 -1.25503,-3.6 -1.94438,-5.25 l -1.25336,-3 -1.11503,2.7941 c -0.61326,1.53676 -1.3924,3.89926 -1.73142,5.25 -0.57079,2.27424 -0.34449,2.4559 3.05941,2.4559 3.35001,0 3.61455,-0.19941 2.98478,-2.25 z m 18.006,-2 c 6.99427,-19.12339 7.69225,-19.25261 13.78973,-2.553 6.56636,17.98378 6.33424,16.803 3.30315,16.803 -1.84482,0 -2.86617,-0.72076 -3.54264,-2.5 -0.85239,-2.24196 -1.50954,-2.5 -6.36684,-2.5 -4.94344,0 -5.47113,0.21827 -6.0438,2.5 -0.48645,1.93816 -1.27065,2.5 -3.48946,2.5 l -2.86199,0 5.21185,-14.25 z m 9.76743,-0.75 c -0.87942,-2.75 -1.87715,-5 -2.21719,-5 -0.34004,0 -1.33777,2.25 -2.21719,5 l -1.59893,5 3.81612,0 3.81612,0 -1.59893,-5 z m 15.78281,0.5 0,-14.5 6.4349,0 c 8.44799,0 11.33147,1.19659 13.10353,5.43774 1.59726,3.82278 1.16877,5.94602 -1.8841,9.33604 l -2.04764,2.27378 2.69666,5.49837 c 1.48316,3.02411 2.69665,5.71341 2.69665,5.97622 0,0.26282 -1.26726,0.47785 -2.81613,0.47785 -2.45885,0 -3.18256,-0.76665 -5.70432,-6.04278 -2.29332,-4.7982 -3.30951,-5.98247 -4.93386,-5.75 -1.74771,0.25013 -2.08938,1.13035 -2.34559,6.04278 -0.27924,5.35383 -0.46872,5.75 -2.75,5.75 l -2.4501,0 0,-14.5 z m 13.8,-2.7 c 1.71444,-1.71444 1.48244,-5.47764 -0.38179,-6.19301 -0.86998,-0.33385 -3.11998,-0.60699 -5,-0.60699 -3.32125,0 -3.41821,0.11347 -3.41821,4 0,3.96491 0.0333,4 3.8,4 2.09,0 4.34,-0.54 5,-1.2 z m 15.2,2.7 0,-14.5 2.5,0 2.5,0 0,12 0,12 6.5,0 c 6.26667,0 6.5,0.0897 6.5,2.5 0,2.48148 -0.0667,2.5 -9,2.5 l -9,0 0,-14.5 z m 22.23421,13.25 c 9.67876,-26.99432 10.05715,-27.85114 12.16644,-27.54928 1.55333,0.22229 2.64543,1.84275 4.24536,6.29928 1.18473,3.3 3.51761,9.7125 5.18417,14.25 l 3.03011,8.25 -2.82174,0 c -2.17586,0 -2.96535,-0.57223 -3.44919,-2.5 -0.57425,-2.28797 -1.09441,-2.5 -6.13316,-2.5 -4.95262,0 -5.60119,0.25114 -6.4562,2.5 -0.68154,1.79259 -1.69518,2.5 -3.58224,2.5 -1.67776,0 -2.46927,-0.45311 -2.18355,-1.25 z m 15.20955,-11 c -0.38006,-1.2375 -1.25503,-3.6 -1.94438,-5.25 l -1.25336,-3 -1.11503,2.7941 c -0.61326,1.53676 -1.3924,3.89926 -1.73142,5.25 -0.57079,2.27424 -0.34449,2.4559 3.05941,2.4559 3.35001,0 3.61455,-0.19941 2.98478,-2.25 z m 15.55624,-2.25 c 0,-14.37618 0.0192,-14.49983 2.25,-14.48041 1.73309,0.0151 3.51357,2.02531 7.75,8.75 l 5.5,8.73041 0.28893,-8.75 0.28894,-8.75 2.96106,0 2.96107,0 0,14.5 0,14.5 -2.75,-0.049 c -2.34909,-0.0419 -3.55182,-1.31714 -8.25,-8.74749 l -5.5,-8.69845 -0.28893,8.74748 c -0.28237,8.54879 -0.34483,8.74746 -2.75,8.74746 l -2.46107,0 0,-14.5 z m 31,0 0,-14.5 5.85078,0 c 11.8309,0 15.14922,3.15493 15.14922,14.40329 0,11.43576 -3.12925,14.59671 -14.45034,14.59671 l -6.54966,0 0,-14.5 z m 14.4433,7.27749 c 0.91052,-1.29995 1.5567,-4.3208 1.5567,-7.27749 0,-6.87105 -1.95281,-9.5 -7.0567,-9.5 l -3.9433,0 0,9.5 0,9.5 3.9433,0 c 2.94127,0 4.33886,-0.56476 5.5,-2.22251 z m 14.5567,-7.27749 0,-14.5 9,0 c 8.93333,0 9,0.0185 9,2.5 0,2.41026 -0.23333,2.5 -6.5,2.5 l -6.5,0 0,3.5 0,3.5 5.5,0 c 5.2,0 5.5,0.13636 5.5,2.5 0,2.36364 -0.3,2.5 -5.5,2.5 l -5.5,0 0,3.5 0,3.5 6.5,0 c 6.26667,0 6.5,0.0897 6.5,2.5 0,2.48148 -0.0667,2.5 -9,2.5 l -9,0 0,-14.5 z m 27.35233,13.50669 c -2.86779,-1.15708 -3.76676,-2.8024 -2.41869,-4.42673 0.9206,-1.10925 1.76793,-1.10432 5.05873,0.0295 5.1915,1.78861 9.00763,0.48985 9.00763,-3.06562 0,-1.91846 -0.64449,-2.64912 -2.75,-3.11769 -9.51977,-2.11857 -11.25,-3.401 -11.25,-8.33838 0,-5.24125 2.50022,-8.07688 7.74135,-8.77986 4.07265,-0.5463 10.25865,1.07638 10.25865,2.69097 0,2.04056 -2.7892,2.97057 -5.78109,1.92759 -4.00597,-1.39649 -7.21891,0.20117 -7.21891,3.58966 0,1.80374 0.65627,2.58202 2.5,2.96482 1.375,0.28548 3.7375,0.77911 5.25,1.09696 1.5125,0.31785 3.5375,1.2876 4.5,2.15499 1.74474,1.57233 2.32813,6.59695 1.12882,9.7223 -1.43686,3.74439 -10.54561,5.7629 -16.02649,3.55149 z m -253.35233,-62.39739 0,-14.6093 6.54966,0 c 11.68382,0 15.06882,3.94605 14.26147,16.62526 -0.34041,5.34596 -0.86431,6.88246 -3.11367,9.13183 -2.3617,2.3617 -3.65435,2.75236 -10.20093,3.08295 l -7.49653,0.37856 0,-14.6093 z m 14.11039,7.75768 c 1.82176,-2.19508 1.83413,-13.51712 0.0172,-15.71033 -0.84622,-1.02141 -2.85933,-1.65665 -5.25003,-1.65665 l -3.87756,0 0,9.5 0,9.5 3.87756,0 c 2.36714,0 4.40547,-0.63611 5.23283,-1.63302 z m 14.55628,5.96635 c -0.36667,-0.36666 -0.66667,-6.89166 -0.66667,-14.5 l 0,-13.83333 9.5,0 c 9.46667,0 9.5,0.009 9.5,2.5 0,2.41026 -0.23333,2.5 -6.5,2.5 l -6.5,0 0,3.5 0,3.5 5.5,0 c 4.83333,0 5.5,0.24242 5.5,2 0,1.75758 -0.66667,2 -5.5,2 l -5.5,0 0,4 0,4 6.5,0 c 6.26667,0 6.5,0.0897 6.5,2.5 0,2.47799 -0.0778,2.5 -8.83333,2.5 -4.85834,0 -9.13334,-0.3 -9.5,-0.66667 z m 27.68566,-0.32664 c -3.11351,-1.25623 -3.81803,-2.96956 -1.9778,-4.80979 1.25844,-1.25844 1.87547,-1.3469 2.81833,-0.40404 1.38056,1.38056 7.64819,1.59419 9.64463,0.32874 0.73562,-0.46628 1.18562,-1.91302 1,-3.21499 -0.28084,-1.96987 -1.24173,-2.56739 -5.7247,-3.55983 -6.66363,-1.4752 -8.31279,-3.05201 -8.31279,-7.9481 0,-2.94869 0.64014,-4.38052 2.78216,-6.22301 2.37786,-2.04535 3.56008,-2.32861 8.13519,-1.9492 6.27513,0.52038 8.45967,2.02508 6.20842,4.27633 -1.23924,1.23924 -2.03178,1.28346 -4.73258,0.26402 -2.36527,-0.89279 -3.71124,-0.9303 -4.96863,-0.13848 -4.14882,2.61267 -1.67515,7.37166 3.83171,7.37166 4.27284,0 7.94373,3.52975 7.94373,7.63832 0,1.92124 -0.4405,4.31625 -0.97889,5.32224 -1.81477,3.39093 -10.58733,5.09638 -15.66878,3.04613 z m -50.02359,-49.46445 c -1.7442,-0.75871 -3.6567,-2.28652 -4.25,-3.39512 -0.59331,-1.1086 -1.07874,-6.99522 -1.07874,-13.08138 l 0,-11.06574 2.5,0 2.5,0 0,10.42857 c 0,11.25005 0.91878,13.57143 5.37143,13.57143 4.00728,0 4.62857,-1.77182 4.62857,-13.2 l 0,-10.8 3,0 3,0 0,9.53212 c 0,11.76316 -1.49215,15.93991 -6.43189,18.00387 -4.24451,1.77347 -5.17529,1.7741 -9.23937,0.006 z m 150.92126,-0.0331 c -3.55998,-1.54731 -4.00412,-2.63838 -1.81392,-4.45608 1.0455,-0.86769 1.97953,-0.90099 3.43426,-0.12244 2.84891,1.52469 7.6755,1.32155 9.08979,-0.38257 2.45307,-2.95577 0.77029,-4.97329 -5.46202,-6.54852 -4.81577,-1.21719 -6.23677,-2.0537 -7.31689,-4.30729 -1.55649,-3.2475 -0.35221,-8.08316 2.56435,-10.29695 2.36107,-1.79213 11.37517,-1.76368 13.8133,0.0436 1.84629,1.36859 1.85598,1.52528 0.19827,3.20715 -1.36128,1.38112 -2.00714,1.50397 -2.95,0.56111 -1.70515,-1.70515 -6.37273,-1.49869 -8.23571,0.36429 -2.92615,2.92615 -1.35521,4.79302 5.28951,6.28599 5.44058,1.22242 8.13906,3.6637 8.13906,7.36331 0,4.20465 -1.68958,6.75163 -5.54837,8.36393 -4.20764,1.75806 -7.02674,1.73905 -11.20163,-0.0755 z m -127.25,-13.50913 0,-14 2.52247,0 c 2.06805,0 3.55427,1.57628 8.25,8.75 l 5.72753,8.75 0.28893,-8.75 c 0.28238,-8.55149 0.34477,-8.75 2.75,-8.75 l 2.46107,0 0,14 0,14 -2.52243,0 c -2.068,0 -3.55428,-1.57636 -8.25,-8.75 l -5.72757,-8.75 -0.28893,8.75 c -0.28238,8.55149 -0.34477,8.75 -2.75,8.75 l -2.46107,0 0,-14 z m 32,0 0,-14 2.5,0 2.5,0 0,14 0,14 -2.5,0 -2.5,0 0,-14 z m 19.57441,12.82014 c -1.44957,-4.59296 -7.95457,-24.55388 -8.35894,-25.64984 -0.35058,-0.95018 0.31339,-1.23559 2.32634,-1 2.58525,0.30258 3.01493,0.98772 5.22386,8.3297 1.3238,4.4 2.73561,8.34503 3.13735,8.76673 0.40174,0.4217 1.94504,-3.2908 3.42955,-8.25 2.45807,-8.21149 2.92097,-9.01673 5.18327,-9.01673 1.36629,0 2.48416,0.35069 2.48416,0.77932 0,0.42863 -1.94991,6.61613 -4.33313,13.75 -3.64192,10.90162 -4.67951,13.02175 -6.50447,13.29082 -1.19424,0.17607 -2.35883,-0.27393 -2.58799,-1 z m 19.42559,-12.82014 0,-14 9.5,0 c 8.83333,0 9.5,0.14035 9.5,2 0,1.80952 -0.66667,2 -7,2 l -7,0 0,4 0,4 6,0 c 5.33333,0 6,0.22222 6,2 0,1.77778 -0.66667,2 -6,2 l -6,0 0,4 0,4 7,0 c 6.33333,0 7,0.19048 7,2 0,1.85965 -0.66667,2 -9.5,2 l -9.5,0 0,-14 z m 26,0 0,-14 7.75,0.0318 c 8.02732,0.0329 10.03863,0.80714 12.08666,4.65246 1.78412,3.34981 1.40448,5.87571 -1.38059,9.18557 l -2.54392,3.02329 2.54392,5.02019 c 1.39916,2.76111 2.54393,5.26016 2.54393,5.55345 0,0.29328 -1.25626,0.53324 -2.79168,0.53324 -2.39023,0 -3.17959,-0.79092 -5.48914,-5.5 -1.93674,-3.94895 -3.26453,-5.5 -4.70831,-5.5 -1.77075,0 -2.01087,0.65676 -2.01087,5.5 0,5.44444 -0.0303,5.5 -3,5.5 l -3,0 0,-14 z m 12.44599,-1.61765 c 0.88526,-0.33971 2.05738,-1.45439 2.60471,-2.47708 1.36939,-2.55874 -2.05956,-5.90527 -6.0507,-5.90527 -2.88889,0 -3,0.16667 -3,4.5 0,4.09275 0.21885,4.5 2.41821,4.5 1.33002,0 3.14252,-0.27794 4.02778,-0.61765 z m 42.55401,1.61765 0,-14 2.5,0 2.5,0 0,14 0,14 -2.5,0 -2.5,0 0,-14 z m 19,2 0,-12 -3.5,0 c -2.83333,0 -3.5,-0.38095 -3.5,-2 0,-1.86667 0.66667,-2 10,-2 9.33333,0 10,0.13333 10,2 0,1.61905 -0.66667,2 -3.5,2 l -3.5,0 0,12 0,12 -3,0 -3,0 0,-12 z m 15,11.27191 c 0,-0.40044 2.1375,-6.71302 4.75,-14.02795 4.38099,-12.26665 4.93298,-13.27828 7.10534,-13.02192 2.05452,0.24246 2.98047,1.99783 7.25,13.74418 2.69206,7.40643 4.89466,13.59393 4.89466,13.75 0,0.15608 -1.13614,0.28378 -2.52475,0.28378 -1.77294,0 -2.80779,-0.74445 -3.47525,-2.5 -0.84055,-2.21081 -1.53422,-2.5 -5.99669,-2.5 -4.41218,0 -5.1893,0.3141 -6.18526,2.5 -0.74253,1.62967 -1.95353,2.5 -3.47857,2.5 -1.28671,0 -2.33948,-0.32764 -2.33948,-0.72809 z m 14.21719,-13.27191 c -0.87942,-2.75 -1.89182,-5 -2.24978,-5 -0.35796,0 -1.2013,1.6875 -1.8741,3.75 -0.67279,2.0625 -1.45652,4.3125 -1.74162,5 -0.36401,0.8778 0.67013,1.25 3.47304,1.25 l 3.99139,0 -1.59893,-5 z m 18.78281,2 0,-12 -3.5,0 c -2.83333,0 -3.5,-0.38095 -3.5,-2 0,-1.86667 0.66667,-2 10,-2 9.22959,0 10,0.14943 10,1.93963 0,1.51952 -0.81224,2.00686 -3.75,2.25 l -3.75,0.31037 -0.28174,11.75 -0.28173,11.75 -2.46827,0 -2.46826,0 0,-12 z m -28,-22 c 0,-1.33333 0.66667,-2 2,-2 1.33333,0 2,0.66667 2,2 0,1.33333 -0.66667,2 -2,2 -1.33333,0 -2,-0.66667 -2,-2 z m 9,0 c 0,-1.33333 0.66667,-2 2,-2 1.33333,0 2,0.66667 2,2 0,1.33333 -0.66667,2 -2,2 -1.33333,0 -2,-0.66667 -2,-2 z"
       id="path3086"
       style="fill:#ffffff;fill-opacity:1" />
  </g>
</svg>
