<?xml version="1.0" encoding="UTF-8" standalone="no"?>
<!-- Created with Inkscape (http://www.inkscape.org/) -->

<svg
   xmlns:dc="http://purl.org/dc/elements/1.1/"
   xmlns:cc="http://creativecommons.org/ns#"
   xmlns:rdf="http://www.w3.org/1999/02/22-rdf-syntax-ns#"
   xmlns:svg="http://www.w3.org/2000/svg"
   xmlns="http://www.w3.org/2000/svg"
   version="1.1"
   width="174"
   height="195.89076"
   id="svg2">
  <defs
     id="defs4" />
  <metadata
     id="metadata7">
    <rdf:RDF>
      <cc:Work
         rdf:about="">
        <dc:format>image/svg+xml</dc:format>
        <dc:type
           rdf:resource="http://purl.org/dc/dcmitype/StillImage" />
        <dc:title></dc:title>
      </cc:Work>
    </rdf:RDF>
  </metadata>
  <g
     transform="translate(-147.71875,-427.46875)"
     id="layer1">
    <path
       d="m 205.625,427.46875 c -8.44994,0 -9.83048,0.23589 -10.25,1.75 -0.26668,0.9625 -1.27466,12.18923 -2.25,24.96875 l -1.78125,23.25 -4.9375,-5.53125 c -6.4946,-7.28679 -13.28083,-10.77595 -21.1875,-10.84375 -7.26101,-0.0623 -12.91675,2.42253 -15.59375,6.8125 -1.78364,2.92498 -1.90225,6.162 -1.90625,64.46875 l 0,61.40625 8.34375,-0.65625 c 11.51117,-0.88482 23.13135,-5.11345 31.4375,-11.4375 l 3.3125,-2.5 -0.3125,10.40625 -0.28125,10.40625 -9.25,0.28125 -9.25,0.28125 -3,5.9375 c -1.64749,3.26364 -3,6.17807 -3,6.46875 0,1.34885 3.44322,0.29126 6.40625,-1.96875 2.52103,-1.92289 4.48555,-2.5 8.46875,-2.5 l 5.1875,0 -1.5625,2.34375 c -0.85535,1.30543 -1.82232,4.68043 -2.15625,7.5 -0.86004,7.26168 0.99631,6.80846 9.1875,-2.34375 l 6.71875,-7.5 11.21875,0 c 10.65702,0 11.29711,0.12186 13.53125,2.5 1.29175,1.375 2.99249,2.5 3.78125,2.5 1.48077,0 1.44415,-0.40404 -0.875,-9.25 l -0.96875,-3.75 -9.0625,0 c -4.97464,0 -8.87083,-0.40365 -8.6875,-0.875 0.18333,-0.47135 2.40974,-3.17135 4.96875,-6 l 4.65625,-5.125 17.8125,0 17.8125,0 5.28125,5.1875 c 2.9048,2.86871 5.28125,5.56871 5.28125,6 0,0.43129 -3.99528,0.8125 -8.90625,0.8125 l -8.9375,0 -1.5625,5.375 c -0.86403,2.97215 -1.59375,5.89715 -1.59375,6.5 0,1.97019 2.83331,1.18053 4.84375,-1.375 1.89281,-2.4063 2.36614,-2.5 13.375,-2.5 l 11.4375,0 6.75,7.5 c 8.2255,9.15422 10.151,9.63816 9.1875,2.375 -0.37283,-2.81052 -1.38871,-6.18552 -2.25,-7.5 l -1.5625,-2.375 5.28125,0 c 4.08128,0 5.9932,0.56414 8.53125,2.5 2.96302,2.26001 6.40625,3.3176 6.40625,1.96875 0,-0.29068 -1.35252,-3.20511 -3,-6.46875 l -2.96875,-5.9375 -9.28125,-0.28125 -9.25,-0.28125 -0.28125,-10.40625 -0.28125,-10.40625 2.28125,1.65625 c 10.35518,7.4665 20.87533,11.40193 33.03125,12.34375 l 7.75,0.59375 0,-61.40625 c -0.004,-58.30743 -0.0913,-61.54377 -1.875,-64.46875 -4.44046,-7.28185 -17.34537,-9.12971 -27,-3.875 -4.8846,2.65854 -13.125,10.55625 -13.125,12.59375 0,0.47256 -0.36746,0.875 -0.8125,0.875 -0.44504,0 -1.80239,-10.2375 -3.03125,-22.75 -1.22886,-12.5125 -2.45717,-23.7625 -2.71875,-25 -0.45444,-2.14986 -0.88946,-2.25495 -10.1875,-2.21875 l -9.75,0.0312 -3.78125,5.46875 -3.78125,5.46875 -11.34375,0 -11.34375,0 -3.78125,-5.5 -3.78125,-5.5 -9.78125,0 z m 10.96875,21.46875 c 7.63545,-0.11986 15.13682,5.3449 15.9375,15 0.51291,6.18507 -1.29607,10.26171 -6.15625,13.96875 -13.46502,10.27027 -31.85239,-5.65638 -23.5625,-20.40625 3.24946,-5.78162 8.557,-8.48049 13.78125,-8.5625 z m 34.8125,0.125 c 3.84958,-0.25849 7.76716,1.05948 11.1875,3.9375 4.01043,3.37456 6.43209,9.72537 5.59375,14.6875 -0.78362,4.63821 -5.56867,10.48943 -10.15625,12.40625 -6.15378,2.57121 -11.65575,1.31946 -17.0625,-3.90625 -6.39179,-6.17777 -6.56144,-15.22204 -0.375,-21.71875 3.16142,-3.31998 6.96292,-5.14776 10.8125,-5.40625 z m -35,4.34375 c -2.58898,0.13572 -5.06627,1.29046 -7.375,3.40625 -3.16491,2.90043 -3.625,3.9472 -3.625,7.84375 0,4.84925 1.9039,8.43689 5.5625,10.46875 3.15596,1.75272 9.87305,1.64312 12.53125,-0.21875 2.66384,-1.86583 5.21875,-6.52073 5.21875,-9.5 0,-3.59625 -3.08433,-8.95993 -6.0625,-10.5 -2.12726,-1.10005 -4.23635,-1.60556 -6.25,-1.5 z m 34.09375,0.5625 c -3.62907,0.099 -4.52969,0.66011 -6.84375,3.25 -2.32468,2.60177 -2.9375,4.1916 -2.9375,7.84375 0,3.88009 0.52849,5.12223 3.40625,8 2.90213,2.90213 4.08199,3.40625 8.09375,3.40625 4.01176,0 5.19162,-0.50412 8.09375,-3.40625 2.87777,-2.87777 3.40625,-4.11991 3.40625,-8 0,-3.65215 -0.58157,-5.24198 -2.90625,-7.84375 -2.64464,-2.95987 -3.46025,-3.25 -8.59375,-3.25 -0.64169,0 -1.20031,-0.0141 -1.71875,0 z m 1.96875,4.1875 c 2.12351,0.029 4.19141,1.2759 5.8125,3.75 1.43477,2.18974 1.49701,2.99167 0.40625,5.625 -0.70127,1.69302 -2.36258,3.49627 -3.6875,4 -2.80754,1.06738 -3.10267,1.05859 -5.875,-0.0625 -1.15003,-0.46506 -2.6563,-2.26489 -3.375,-4 -1.15665,-2.79239 -1.08211,-3.43226 0.625,-5.71875 1.81221,-2.42727 3.97024,-3.62271 6.09375,-3.59375 z M 216.5,458.25 c 6.92503,-0.1969 9.98502,7.88423 4.59375,12.125 -3.46016,2.72177 -5.90762,2.62364 -8.90625,-0.375 -4.56984,-4.56983 -1.99673,-11.57062 4.3125,-11.75 z m -48.78125,16.0625 2.25,0.3125 2.25,0.34375 0.25,48 c 0.18578,37.07764 -0.0554,48.56887 -1.03125,50.5 -1.6368,3.2391 -6.59368,3.88098 -9.03125,1.1875 -1.56971,-1.73451 -1.67609,-5.80582 -1.4375,-50.28125 0.25566,-47.65731 0.28112,-48.40625 2.25,-48.40625 1.96006,0 2.02446,0.75401 2.28125,37.75 0.1667,24.01687 0.62144,37.75 1.25,37.75 0.63356,0 0.96875,-13.86035 0.96875,-38.59375 l 0,-38.5625 z m 134,0 0,38.5625 c 0,24.7334 0.36645,38.59375 1,38.59375 0.62856,0 1.0833,-13.73313 1.25,-37.75 0.2568,-36.99599 0.28995,-37.75 2.25,-37.75 1.96888,0 2.02559,0.74894 2.28125,48.40625 0.23595,43.98274 0.10618,48.57878 -1.40625,50.25 -2.07007,2.2874 -6.67207,2.38928 -8.5,0.1875 -1.12217,-1.35169 -1.375,-10.60606 -1.375,-50.75 l 0,-49.09375 2.25,-0.34375 2.25,-0.3125 z m -67.34375,4.625 c 0.82126,2.5e-4 1.70889,0.39289 2.84375,1.21875 3.1015,2.2568 3.09608,3.23393 0,9.34375 -1.38427,2.73172 -2.68831,4.96875 -2.875,4.96875 -0.18669,0 -1.4837,-2.57462 -2.90625,-5.71875 -2.71326,-5.99699 -2.52442,-7.26918 1.46875,-9.40625 0.50969,-0.27278 0.97599,-0.4064 1.46875,-0.40625 z m -50.65625,4.375 0,34.5625 c 0,22.3797 0.35262,34.59375 1,34.59375 0.64392,0 1,-10.44583 1,-29.3125 0,-29.57936 0.31893,-32.2999 3.625,-31.03125 1.13522,0.43563 1.375,6.83589 1.375,36.21875 0,30.66613 -0.22419,35.9643 -1.5625,37.875 -1.77797,2.53841 -5.16157,2.88732 -8,0.8125 -1.86663,-1.36446 -1.9375,-2.98567 -1.9375,-42.25 l 0,-40.8125 2.25,-0.34375 2.25,-0.3125 z m 102,0 2.25,0.3125 2.25,0.34375 0,40.8125 c 0,39.26433 -0.0709,40.88554 -1.9375,42.25 -2.83843,2.07482 -6.22203,1.72591 -8,-0.8125 -1.33727,-1.90922 -1.5625,-7.1754 -1.5625,-37.375 0,-27.94926 0.2913,-35.37654 1.34375,-36.25 3.2719,-2.71544 3.65625,0.65361 3.65625,30.5625 0,18.86667 0.35609,29.3125 1,29.3125 0.64738,0 1,-12.21405 1,-34.59375 l 0,-34.5625 z m -76,20.15625 c 1.9052,0 2,0.66343 2,14.0625 0,7.78353 -0.45841,14.92965 -1.03125,16 -1.2745,2.38142 -6.14507,2.57368 -8.375,0.34375 -1.28405,-1.28405 -1.59375,-4.21572 -1.59375,-16.0625 0,-14.4631 0.005,-14.50628 2.25,-14.1875 2.08494,0.29611 2.28668,0.96731 2.75,8.84375 0.58322,9.91462 2,8.42794 2,-2.09375 0,-6.25154 0.19273,-6.90625 2,-6.90625 z m 56,0 c 1.9052,0 2,0.66343 2,14.0625 0,7.78353 -0.45842,14.92965 -1.03125,16 -1.2745,2.38142 -6.14507,2.57368 -8.375,0.34375 -1.28405,-1.28405 -1.59375,-4.21572 -1.59375,-16.0625 0,-14.4631 0.005,-14.50628 2.25,-14.1875 2.08494,0.29611 2.28668,0.96731 2.75,8.84375 0.58321,9.91462 2,8.42794 2,-2.09375 0,-6.25154 0.19273,-6.90625 2,-6.90625 z M 227.625,508.6875 c 0.45498,-0.0173 1.00158,0.26918 1.65625,0.8125 1.14213,0.94789 1.4375,4.07015 1.4375,14.5625 0,12.04423 -0.19934,13.60559 -2,15.40625 -2.55454,2.55453 -5.45927,2.54072 -8.03125,-0.0312 -1.87546,-1.87547 -2.00652,-3.09242 -1.75,-16.25 0.26249,-13.46361 0.388,-14.21875 2.28125,-14.21875 1.81492,0 2.04893,0.76348 2.3125,8.25 0.37216,10.57134 2.1875,10.80054 2.1875,0.28125 0,-6.07618 0.5413,-8.76055 1.90625,-8.8125 z m 13.1875,0.0312 c 1.39647,0.0106 1.90625,2.65652 1.90625,8.78125 0,10.51929 1.84658,10.29009 2.21875,-0.28125 0.26356,-7.48652 0.46634,-8.25 2.28125,-8.25 1.89326,0 2.01876,0.75515 2.28125,14.21875 0.25652,13.15758 0.12547,14.37453 -1.75,16.25 -2.6004,2.60036 -5.22376,2.5555 -7.625,-0.0937 -1.63021,-1.7986 -1.94143,-4.00421 -2.21875,-15.3125 -0.26779,-10.91978 -0.077,-13.41928 1.1875,-14.46875 0.67369,-0.55911 1.25326,-0.84729 1.71875,-0.84375 z m -37.96875,32.9375 c 0.39936,0.0703 0.88357,0.38403 1.4375,0.84375 1.04048,0.86353 1.4375,3.36691 1.4375,8.78125 0,9.85237 1.81273,8.345 2.21875,-1.84375 0.23377,-5.86615 0.60784,-7.46875 1.78125,-7.46875 1.25095,0 1.54915,2.37427 1.78125,14.375 0.23868,12.34072 0.0373,14.65486 -1.40625,16.25 -2.05301,2.26855 -4.21961,2.3694 -7.15625,0.3125 -2.12152,-1.48597 -2.21875,-2.20681 -2.21875,-15.9375 0,-11.79048 0.39445,-15.61737 2.125,-15.3125 z m 56,0 c 0.39936,0.0703 0.88357,0.38403 1.4375,0.84375 1.04049,0.86353 1.4375,3.36691 1.4375,8.78125 0,9.85237 1.81272,8.345 2.21875,-1.84375 0.23377,-5.86615 0.60784,-7.46875 1.78125,-7.46875 1.25095,0 1.54915,2.37427 1.78125,14.375 0.23868,12.34072 0.0373,14.65486 -1.40625,16.25 -2.05301,2.26855 -4.21961,2.3694 -7.15625,0.3125 -2.12152,-1.48597 -2.21875,-2.20681 -2.21875,-15.9375 0,-11.79048 0.39445,-15.61737 2.125,-15.3125 z M 240.75,547.4687 c 1.80829,0 1.96875,0.68864 1.96875,7.9375 0,10.76802 1.8455,11.46937 2.21875,0.84375 0.26416,-7.52003 0.46563,-8.28125 2.28125,-8.28125 1.89274,0 2.01924,0.73224 2.28125,14.125 0.23251,11.88487 0.0298,14.40774 -1.3125,15.75 -2.07837,2.07834 -6.84594,2.07024 -8.59375,-0.0312 -0.94585,-1.13724 -1.45608,-5.36515 -1.6875,-13.59375 -0.39232,-13.94906 0.0753,-16.75 2.84375,-16.75 z m -19.53125,0.5 c 1.81492,0 2.04893,0.76348 2.3125,8.25 0.15974,4.5375 0.68199,8.25 1.1875,8.25 0.50552,0 1.05901,-3.7125 1.21875,-8.25 0.26357,-7.48652 0.46634,-8.25 2.28125,-8.25 1.8864,0 2.01722,0.75513 2.28125,13.375 0.22508,10.75823 -0.0325,13.84425 -1.28125,15.75 -1.05368,1.60812 -2.49581,2.375 -4.5,2.375 -5.20204,0 -6.10145,-2.82036 -5.78125,-18.125 0.26403,-12.61987 0.39485,-13.375 2.28125,-13.375 z"
       id="path3086"
       style="fill:#10427a;fill-opacity:1" />
  </g>
</svg>
