<?xml version="1.0" encoding="UTF-8" standalone="no"?>
<!-- Created with Inkscape (http://www.inkscape.org/) -->

<svg
   xmlns:dc="http://purl.org/dc/elements/1.1/"
   xmlns:cc="http://creativecommons.org/ns#"
   xmlns:rdf="http://www.w3.org/1999/02/22-rdf-syntax-ns#"
   xmlns:svg="http://www.w3.org/2000/svg"
   xmlns="http://www.w3.org/2000/svg"
   version="1.1"
   width="490.00995"
   height="195.89929"
   id="svg2">
  <defs
     id="defs4" />
  <metadata
     id="metadata7">
    <rdf:RDF>
      <cc:Work
         rdf:about="">
        <dc:format>image/svg+xml</dc:format>
        <dc:type
           rdf:resource="http://purl.org/dc/dcmitype/StillImage" />
        <dc:title></dc:title>
      </cc:Work>
    </rdf:RDF>
  </metadata>
  <g
     transform="translate(-207.87725,-485.34809)"
     id="layer1">
    <path
       d="m 242.20583,676.22161 c 0.33393,-2.81957 1.30699,-6.19457 2.16234,-7.5 l 1.55519,-2.37352 -5.17866,0 c -3.9832,0 -5.9353,0.57711 -8.45633,2.5 -2.96303,2.26001 -6.41112,3.32033 -6.41112,1.97148 0,-0.29068 1.34794,-3.19877 2.99543,-6.46241 l 2.99542,-5.9339 9.25458,-0.28758 9.25457,-0.28759 0.28661,-10.39661 0.2866,-10.3966 -3.2866,2.50232 c -8.30615,6.32405 -19.95519,10.56158 -31.46636,11.4464 l -8.32025,0.63954 0.004,-61.39752 c 0.004,-58.30675 0.0983,-61.55258 1.88194,-64.47756 2.677,-4.38997 8.35331,-6.86183 15.61432,-6.79955 7.90667,0.0678 14.69608,3.5351 21.19068,10.82189 l 4.92765,5.5287 1.77335,-23.23551 c 0.97534,-12.77952 1.99154,-24.023 2.25822,-24.9855 0.41952,-1.51411 1.80133,-1.75 10.25127,-1.75 l 9.7664,0 3.78799,5.5 3.788,5.5 11.33573,0 11.33573,0 3.79249,-5.46206 3.79249,-5.46205 9.73095,-0.0379 c 9.29804,-0.0362 9.7521,0.0622 10.20654,2.21206 0.26158,1.2375 1.48103,12.4875 2.70989,25 1.22886,12.5125 2.59841,22.75 3.04345,22.75 0.44504,0 0.80917,-0.38665 0.80917,-0.85921 0,-2.0375 8.22598,-9.94592 13.11058,-12.60446 9.65463,-5.25471 22.56328,-3.39821 27.00374,3.88364 1.78366,2.92498 1.87839,6.17082 1.88194,64.47825 l 0.004,61.39821 -7.75,-0.60046 c -12.15592,-0.94182 -22.68142,-4.87329 -33.0366,-12.33979 l -2.2866,-1.64872 0.2866,10.39627 0.2866,10.39627 9.25458,0.28759 9.25458,0.28758 2.99542,5.9339 c 1.64748,3.26364 2.99542,6.17173 2.99542,6.46241 0,1.34885 -3.44809,0.28853 -6.41111,-1.97148 -2.53805,-1.93586 -4.46701,-2.5 -8.54829,-2.5 l -5.27062,0 1.56597,2.38998 c 0.86129,1.31448 1.87101,4.68948 2.24384,7.5 0.9635,7.26316 -0.95249,6.76424 -9.17799,-2.38998 l -6.73911,-7.5 -11.43742,0 c -11.00886,0 -11.51112,0.0937 -13.40393,2.5 -2.01044,2.55553 -4.8216,3.3741 -4.8216,1.40391 0,-0.60285 0.70693,-3.52785 1.57096,-6.5 l 1.57096,-5.40391 8.92904,0 c 4.91097,0 8.92904,-0.35287 8.92904,-0.78416 0,-0.43129 -2.37665,-3.13129 -5.28145,-6 l -5.28144,-5.21584 -17.81579,0 -17.81579,0 -4.65277,5.143 c -2.55901,2.82865 -4.80276,5.52865 -4.98609,6 -0.18333,0.47135 3.73682,0.857 8.71146,0.857 l 9.04479,0 0.98314,3.75 c 2.31915,8.84596 2.35744,9.25 0.87667,9.25 -0.78876,0 -2.49098,-1.125 -3.78273,-2.5 -2.23414,-2.37814 -2.89472,-2.5 -13.55174,-2.5 l -11.20312,0 -6.71246,7.5 c -8.19119,9.15221 -10.06414,9.6352 -9.2041,2.37352 z m 47.1783,-41.24367 c 1.2487,-1.90575 1.49813,-4.99177 1.27305,-15.75 -0.26403,-12.61987 -0.39353,-13.37985 -2.27993,-13.37985 -1.81491,0 -2.02687,0.76348 -2.29044,8.25 -0.15974,4.5375 -0.70404,8.25 -1.20956,8.25 -0.50551,0 -1.04981,-3.7125 -1.20955,-8.25 -0.26357,-7.48652 -0.47553,-8.25 -2.29045,-8.25 -1.8864,0 -2.0159,0.75998 -2.27993,13.37985 -0.3202,15.30464 0.57789,18.12015 5.77993,18.12015 2.00419,0 3.4532,-0.76203 4.50688,-2.37015 z m 18.94855,0.77186 c 1.34227,-1.34226 1.55394,-3.86513 1.32143,-15.75 -0.26201,-13.39276 -0.38412,-14.15171 -2.27686,-14.15171 -1.81562,0 -2.02683,0.76366 -2.29099,8.28369 -0.37325,10.62562 -2.20901,9.92531 -2.20901,-0.84271 0,-7.24886 -0.17265,-7.94098 -1.98094,-7.94098 -2.7684,0 -3.24718,2.81072 -2.85486,16.75978 0.23142,8.2286 0.7624,12.45282 1.70825,13.59006 1.74781,2.10149 6.50461,2.13024 8.58298,0.0519 z m -76.73772,-4.40171 c 0.97584,-1.93113 1.20858,-13.42236 1.0228,-50.5 l -0.24051,-48 -2.25,-0.31955 -2.25,-0.31955 0,38.56955 c 0,24.7334 -0.35441,38.56955 -0.98797,38.56955 -0.62856,0 -1.0833,-13.73313 -1.25,-37.75 -0.25679,-36.99599 -0.30197,-37.75 -2.26203,-37.75 -1.96888,0 -2.00404,0.75323 -2.2597,48.41054 -0.23859,44.47543 -0.12081,48.56401 1.4489,50.29852 2.43757,2.69348 7.39171,2.03004 9.02851,-1.20906 z m 135.637,1.16054 c 1.51243,-1.67122 1.64094,-6.26726 1.40499,-50.25 -0.25566,-47.65731 -0.29082,-48.41054 -2.2597,-48.41054 -1.96005,0 -2.00523,0.75401 -2.26203,37.75 -0.1667,24.01687 -0.62144,37.75 -1.25,37.75 -0.63355,0 -0.98797,-13.83615 -0.98797,-38.56955 l 0,-38.56955 -2.25,0.31955 -2.25,0.31955 0,49.09686 c 0,40.14394 0.25027,49.39831 1.37244,50.75 1.82793,2.20178 6.4122,2.10108 8.48227,-0.18632 z m -96.98138,-2.02056 c 1.44358,-1.59514 1.64366,-3.90928 1.40498,-16.25 -0.2321,-12.00073 -0.52736,-14.38998 -1.77831,-14.38998 -1.17341,0 -1.56506,1.63268 -1.79883,7.49883 -0.40602,10.18875 -2.20117,11.67598 -2.20117,1.82361 0,-5.41434 -0.41571,-7.92256 -1.45619,-8.78609 -2.95429,-2.45184 -3.54381,-0.0454 -3.54381,14.46596 0,13.73069 0.10099,14.45502 2.22251,15.94099 2.93664,2.0569 5.09781,1.96523 7.15082,-0.30332 z m 55.99999,0 c 1.44358,-1.59514 1.64367,-3.90928 1.40499,-16.25 -0.2321,-12.00073 -0.52736,-14.38998 -1.77831,-14.38998 -1.17341,0 -1.56506,1.63268 -1.79883,7.49883 -0.40603,10.18875 -2.20117,11.67598 -2.20117,1.82361 0,-5.41434 -0.41571,-7.92256 -1.4562,-8.78609 -2.95429,-2.45184 -3.5438,-0.0454 -3.5438,14.46596 0,13.73069 0.10099,14.45502 2.22251,15.94099 2.93664,2.0569 5.0978,1.96523 7.15081,-0.30332 z m -76.93002,-6.36249 c 1.33831,-1.9107 1.5567,-7.22688 1.5567,-37.89301 0,-29.38286 -0.24292,-35.76372 -1.37814,-36.19935 -3.30607,-1.26865 -3.62186,1.43551 -3.62186,31.01487 0,18.86667 -0.35608,29.3 -1,29.3 -0.64738,0 -1,-12.18985 -1,-34.56955 l 0,-34.56955 -2.25,0.31955 -2.25,0.31955 0,40.83108 c 0,39.26433 0.0745,40.88554 1.94113,42.25 2.83843,2.07482 6.2242,1.73482 8.00217,-0.80359 z m 99.11557,0.80359 c 1.86665,-1.36446 1.94113,-2.98567 1.94113,-42.25 l 0,-40.83108 -2.25,-0.31955 -2.25,-0.31955 0,34.56955 c 0,22.3797 -0.35262,34.56955 -1,34.56955 -0.64391,0 -1,-10.43333 -1,-29.3 0,-29.90889 -0.40431,-33.2692 -3.67621,-30.55376 -1.05245,0.87346 -1.32379,8.30444 -1.32379,36.2537 0,30.1996 0.21943,35.46833 1.5567,37.37755 1.77797,2.53841 5.16374,2.87841 8.00217,0.80359 z m -59.55887,-27.58108 c 1.80066,-1.80066 2,-3.33333 2,-15.37756 0,-10.49235 -0.31406,-13.6382 -1.45619,-14.58609 -2.61867,-2.1733 -3.54381,-0.0789 -3.54381,8.02267 0,10.51929 -1.83739,10.26232 -2.20955,-0.30902 -0.26357,-7.48652 -0.47553,-8.25 -2.29045,-8.25 -1.89325,0 -2.0148,0.7591 -2.27729,14.22271 -0.25652,13.15758 -0.12546,14.37453 1.75,16.25 2.57198,2.57197 5.47275,2.58183 8.02729,0.0273 z m 19.02729,-0.0273 c 1.87547,-1.87547 2.00652,-3.09242 1.75,-16.25 -0.26249,-13.4636 -0.38403,-14.2227 -2.27729,-14.2227 -1.81491,0 -2.02688,0.76348 -2.29044,8.25 -0.37217,10.57134 -2.20956,10.82831 -2.20956,0.30902 0,-8.16631 -0.92311,-10.19765 -3.61786,-7.9612 -1.26454,1.04947 -1.47399,3.56456 -1.2062,14.48434 0.27732,11.30829 0.59884,13.51749 2.22905,15.31609 2.40124,2.64925 5.0219,2.67486 7.6223,0.0745 z m -37.06247,-5.90696 c 0.57284,-1.07035 1.03518,-8.21647 1.03518,-16 0,-13.39907 -0.0948,-14.06574 -2,-14.06574 -1.80727,0 -2,0.66667 -2,6.91821 0,10.52169 -1.41678,11.99641 -2,2.08179 -0.46332,-7.87644 -0.66506,-8.52344 -2.75,-8.81955 -2.24456,-0.31878 -2.25,-0.28453 -2.25,14.17857 0,11.84678 0.28738,14.7855 1.57143,16.06955 2.22993,2.22993 7.11889,2.01859 8.39339,-0.36283 z m 56,0 c 0.57283,-1.07035 1.03518,-8.21647 1.03518,-16 0,-13.39907 -0.0948,-14.06574 -2,-14.06574 -1.80727,0 -2,0.66667 -2,6.91821 0,10.52169 -1.41679,11.99641 -2,2.08179 -0.46332,-7.87644 -0.66506,-8.52344 -2.75,-8.81955 -2.24457,-0.31878 -2.25,-0.28453 -2.25,14.17857 0,11.84678 0.28738,14.7855 1.57143,16.06955 2.22993,2.22993 7.11889,2.01859 8.39339,-0.36283 z m -29.48166,-44.0325 c 3.09608,-6.10982 3.0955,-7.0664 -0.006,-9.3232 -1.81577,-1.32138 -2.94164,-1.53201 -4.30082,-0.80459 -3.99317,2.13707 -4.1889,3.38096 -1.47564,9.37795 1.42255,3.14413 2.73918,5.7166 2.92587,5.7166 0.18669,0 1.47202,-2.23504 2.85629,-4.96676 z m -10.82298,-11.58761 c 4.86018,-3.70704 6.64386,-7.76577 6.13095,-13.95084 -1.34851,-16.26122 -21.69855,-20.67979 -29.69721,-6.4481 -8.28989,14.74987 10.10124,30.66921 23.56626,20.39894 z m -15.41879,-2.77086 c -3.6586,-2.03186 -5.57472,-5.63572 -5.57472,-10.48497 0,-3.89655 0.48707,-4.94258 3.65198,-7.84301 4.1044,-3.7614 8.73387,-4.40523 13.59617,-1.89084 2.97817,1.54007 6.08518,6.89859 6.08518,10.49484 0,2.97927 -2.55295,7.62268 -5.21679,9.48851 -2.6582,1.86187 -9.38586,1.98819 -12.54182,0.23547 z m 10.12375,-4.74735 c 5.39127,-4.24077 2.32069,-12.33658 -4.60434,-12.13968 -6.30923,0.17938 -8.87609,7.18788 -4.30625,11.75771 2.99863,2.99864 5.45043,3.10374 8.91059,0.38197 z m 36.9326,9.72154 c 4.58758,-1.91682 9.37648,-7.76119 10.1601,-12.3994 0.83834,-4.96213 -1.58853,-11.3403 -5.59896,-14.71486 -6.84068,-5.75604 -15.65725,-5.16403 -21.98009,1.47592 -6.18644,6.49671 -6.0399,15.54168 0.35189,21.71945 5.40675,5.22571 10.91328,6.4901 17.06706,3.91889 z m -13.89774,-7.04896 c -2.87776,-2.87777 -3.4,-4.10413 -3.4,-7.98422 0,-3.65215 0.59329,-5.24823 2.91797,-7.85 2.64464,-2.95987 3.44853,-3.26578 8.58203,-3.26578 5.1335,0 5.93739,0.30591 8.58203,3.26578 2.32468,2.60177 2.91797,4.19785 2.91797,7.85 0,3.88009 -0.52223,5.10645 -3.4,7.98422 -2.90213,2.90213 -4.08824,3.4 -8.1,3.4 -4.01176,0 -5.19787,-0.49787 -8.1,-3.4 z m 10.87873,-1.51588 c 1.32492,-0.50373 2.98271,-2.30107 3.68398,-3.99409 1.09076,-2.63333 1.03264,-3.44818 -0.40213,-5.63792 -3.24218,-4.94819 -8.30291,-5.01722 -11.92734,-0.16269 -1.70711,2.28649 -1.77855,2.94556 -0.6219,5.73795 0.7187,1.73511 2.24767,3.53524 3.3977,4.0003 2.77233,1.12109 3.06215,1.12388 5.86969,0.0565 z m 115.47127,119.7536 c -5.49487,-2.0069 -2.59783,-6.2373 2.96237,-4.32579 4.23986,1.45759 8.6522,0.54714 9.12021,-1.88189 0.5206,-2.70201 -1.52024,-4.35611 -6.24964,-5.06533 -5.38782,-0.80795 -7.78294,-3.3087 -7.78294,-8.12617 0,-4.72426 2.6623,-7.4226 8.03438,-8.14315 3.98289,-0.53422 10.16562,1.11004 10.16562,2.70349 0,1.99093 -2.82952,3.01643 -5.51045,1.99715 -3.27244,-1.24418 -6.13893,-0.51969 -7.42084,1.87558 -1.43726,2.68554 0.23259,4.25785 5.55558,5.23107 7.04305,1.2877 10.11978,6.18876 7.75453,12.35252 -1.4949,3.89565 -10.31281,5.68932 -16.62882,3.38252 z m 22.81679,-1.08772 c 0.38586,-1.2375 2.72303,-7.78635 5.19372,-14.553 6.09748,-16.69961 6.79546,-16.57039 13.78973,2.553 l 5.21185,14.25 -2.86199,0 c -2.21881,0 -3.00301,-0.56184 -3.48946,-2.5 -0.57267,-2.28173 -1.10036,-2.5 -6.0438,-2.5 -4.8573,0 -5.51445,0.25804 -6.36684,2.5 -0.67647,1.77924 -1.69782,2.5 -3.54264,2.5 -2.22934,0 -2.49395,-0.31491 -1.89057,-2.25 z m 14.87697,-10 c -0.38006,-1.2375 -1.25503,-3.6 -1.94438,-5.25 l -1.25336,-3 -1.11503,2.7941 c -0.61326,1.53676 -1.3924,3.89926 -1.73142,5.25 -0.57079,2.27424 -0.34449,2.4559 3.05941,2.4559 3.35001,0 3.61455,-0.19941 2.98478,-2.25 z m 18.006,-2 c 6.99427,-19.12339 7.69225,-19.25261 13.78973,-2.553 6.56636,17.98378 6.33424,16.803 3.30315,16.803 -1.84482,0 -2.86617,-0.72076 -3.54264,-2.5 -0.85239,-2.24196 -1.50954,-2.5 -6.36684,-2.5 -4.94344,0 -5.47113,0.21827 -6.0438,2.5 -0.48645,1.93816 -1.27065,2.5 -3.48946,2.5 l -2.86199,0 5.21185,-14.25 z m 9.76743,-0.75 c -0.87942,-2.75 -1.87715,-5 -2.21719,-5 -0.34004,0 -1.33777,2.25 -2.21719,5 l -1.59893,5 3.81612,0 3.81612,0 -1.59893,-5 z m 15.78281,0.5 0,-14.5 6.4349,0 c 8.44799,0 11.33147,1.19659 13.10353,5.43774 1.59726,3.82278 1.16877,5.94602 -1.8841,9.33604 l -2.04764,2.27378 2.69666,5.49837 c 1.48316,3.02411 2.69665,5.71341 2.69665,5.97622 0,0.26282 -1.26726,0.47785 -2.81613,0.47785 -2.45885,0 -3.18256,-0.76665 -5.70432,-6.04278 -2.29332,-4.7982 -3.30951,-5.98247 -4.93386,-5.75 -1.74771,0.25013 -2.08938,1.13035 -2.34559,6.04278 -0.27924,5.35383 -0.46872,5.75 -2.75,5.75 l -2.4501,0 0,-14.5 z m 13.8,-2.7 c 1.71444,-1.71444 1.48244,-5.47764 -0.38179,-6.19301 -0.86998,-0.33385 -3.11998,-0.60699 -5,-0.60699 -3.32125,0 -3.41821,0.11347 -3.41821,4 0,3.96491 0.0333,4 3.8,4 2.09,0 4.34,-0.54 5,-1.2 z m 15.2,2.7 0,-14.5 2.5,0 2.5,0 0,12 0,12 6.5,0 c 6.26667,0 6.5,0.0897 6.5,2.5 0,2.48148 -0.0667,2.5 -9,2.5 l -9,0 0,-14.5 z m 22.23421,13.25 c 9.67876,-26.99432 10.05715,-27.85114 12.16644,-27.54928 1.55333,0.22229 2.64543,1.84275 4.24536,6.29928 1.18473,3.3 3.51761,9.7125 5.18417,14.25 l 3.03011,8.25 -2.82174,0 c -2.17586,0 -2.96535,-0.57223 -3.44919,-2.5 -0.57425,-2.28797 -1.09441,-2.5 -6.13316,-2.5 -4.95262,0 -5.60119,0.25114 -6.4562,2.5 -0.68154,1.79259 -1.69518,2.5 -3.58224,2.5 -1.67776,0 -2.46927,-0.45311 -2.18355,-1.25 z m 15.20955,-11 c -0.38006,-1.2375 -1.25503,-3.6 -1.94438,-5.25 l -1.25336,-3 -1.11503,2.7941 c -0.61326,1.53676 -1.3924,3.89926 -1.73142,5.25 -0.57079,2.27424 -0.34449,2.4559 3.05941,2.4559 3.35001,0 3.61455,-0.19941 2.98478,-2.25 z m 15.55624,-2.25 c 0,-14.37618 0.0192,-14.49983 2.25,-14.48041 1.73309,0.0151 3.51357,2.02531 7.75,8.75 l 5.5,8.73041 0.28893,-8.75 0.28894,-8.75 2.96106,0 2.96107,0 0,14.5 0,14.5 -2.75,-0.049 c -2.34909,-0.0419 -3.55182,-1.31714 -8.25,-8.74749 l -5.5,-8.69845 -0.28893,8.74748 c -0.28237,8.54879 -0.34483,8.74746 -2.75,8.74746 l -2.46107,0 0,-14.5 z m 31,0 0,-14.5 5.85078,0 c 11.8309,0 15.14922,3.15493 15.14922,14.40329 0,11.43576 -3.12925,14.59671 -14.45034,14.59671 l -6.54966,0 0,-14.5 z m 14.4433,7.27749 c 0.91052,-1.29995 1.5567,-4.3208 1.5567,-7.27749 0,-6.87105 -1.95281,-9.5 -7.0567,-9.5 l -3.9433,0 0,9.5 0,9.5 3.9433,0 c 2.94127,0 4.33886,-0.56476 5.5,-2.22251 z m 14.5567,-7.27749 0,-14.5 9,0 c 8.93333,0 9,0.0185 9,2.5 0,2.41026 -0.23333,2.5 -6.5,2.5 l -6.5,0 0,3.5 0,3.5 5.5,0 c 5.2,0 5.5,0.13636 5.5,2.5 0,2.36364 -0.3,2.5 -5.5,2.5 l -5.5,0 0,3.5 0,3.5 6.5,0 c 6.26667,0 6.5,0.0897 6.5,2.5 0,2.48148 -0.0667,2.5 -9,2.5 l -9,0 0,-14.5 z m 27.35233,13.50669 c -2.86779,-1.15708 -3.76676,-2.8024 -2.41869,-4.42673 0.9206,-1.10925 1.76793,-1.10432 5.05873,0.0295 5.1915,1.78861 9.00763,0.48985 9.00763,-3.06562 0,-1.91846 -0.64449,-2.64912 -2.75,-3.11769 -9.51977,-2.11857 -11.25,-3.401 -11.25,-8.33838 0,-5.24125 2.50022,-8.07688 7.74135,-8.77986 4.07265,-0.5463 10.25865,1.07638 10.25865,2.69097 0,2.04056 -2.7892,2.97057 -5.78109,1.92759 -4.00597,-1.39649 -7.21891,0.20117 -7.21891,3.58966 0,1.80374 0.65627,2.58202 2.5,2.96482 1.375,0.28548 3.7375,0.77911 5.25,1.09696 1.5125,0.31785 3.5375,1.2876 4.5,2.15499 1.74474,1.57233 2.32813,6.59695 1.12882,9.7223 -1.43686,3.74439 -10.54561,5.7629 -16.02649,3.55149 z m -253.35233,-62.39739 0,-14.6093 6.54966,0 c 11.68382,0 15.06882,3.94605 14.26147,16.62526 -0.34041,5.34596 -0.86431,6.88246 -3.11367,9.13183 -2.3617,2.3617 -3.65435,2.75236 -10.20093,3.08295 l -7.49653,0.37856 0,-14.6093 z m 14.11039,7.75768 c 1.82176,-2.19508 1.83413,-13.51712 0.0172,-15.71033 -0.84622,-1.02141 -2.85933,-1.65665 -5.25003,-1.65665 l -3.87756,0 0,9.5 0,9.5 3.87756,0 c 2.36714,0 4.40547,-0.63611 5.23283,-1.63302 z m 14.55628,5.96635 c -0.36667,-0.36666 -0.66667,-6.89166 -0.66667,-14.5 l 0,-13.83333 9.5,0 c 9.46667,0 9.5,0.009 9.5,2.5 0,2.41026 -0.23333,2.5 -6.5,2.5 l -6.5,0 0,3.5 0,3.5 5.5,0 c 4.83333,0 5.5,0.24242 5.5,2 0,1.75758 -0.66667,2 -5.5,2 l -5.5,0 0,4 0,4 6.5,0 c 6.26667,0 6.5,0.0897 6.5,2.5 0,2.47799 -0.0778,2.5 -8.83333,2.5 -4.85834,0 -9.13334,-0.3 -9.5,-0.66667 z m 27.68566,-0.32664 c -3.11351,-1.25623 -3.81803,-2.96956 -1.9778,-4.80979 1.25844,-1.25844 1.87547,-1.3469 2.81833,-0.40404 1.38056,1.38056 7.64819,1.59419 9.64463,0.32874 0.73562,-0.46628 1.18562,-1.91302 1,-3.21499 -0.28084,-1.96987 -1.24173,-2.56739 -5.7247,-3.55983 -6.66363,-1.4752 -8.31279,-3.05201 -8.31279,-7.9481 0,-2.94869 0.64014,-4.38052 2.78216,-6.22301 2.37786,-2.04535 3.56008,-2.32861 8.13519,-1.9492 6.27513,0.52038 8.45967,2.02508 6.20842,4.27633 -1.23924,1.23924 -2.03178,1.28346 -4.73258,0.26402 -2.36527,-0.89279 -3.71124,-0.9303 -4.96863,-0.13848 -4.14882,2.61267 -1.67515,7.37166 3.83171,7.37166 4.27284,0 7.94373,3.52975 7.94373,7.63832 0,1.92124 -0.4405,4.31625 -0.97889,5.32224 -1.81477,3.39093 -10.58733,5.09638 -15.66878,3.04613 z m -50.02359,-49.46445 c -1.7442,-0.75871 -3.6567,-2.28652 -4.25,-3.39512 -0.59331,-1.1086 -1.07874,-6.99522 -1.07874,-13.08138 l 0,-11.06574 2.5,0 2.5,0 0,10.42857 c 0,11.25005 0.91878,13.57143 5.37143,13.57143 4.00728,0 4.62857,-1.77182 4.62857,-13.2 l 0,-10.8 3,0 3,0 0,9.53212 c 0,11.76316 -1.49215,15.93991 -6.43189,18.00387 -4.24451,1.77347 -5.17529,1.7741 -9.23937,0.006 z m 150.92126,-0.0331 c -3.55998,-1.54731 -4.00412,-2.63838 -1.81392,-4.45608 1.0455,-0.86769 1.97953,-0.90099 3.43426,-0.12244 2.84891,1.52469 7.6755,1.32155 9.08979,-0.38257 2.45307,-2.95577 0.77029,-4.97329 -5.46202,-6.54852 -4.81577,-1.21719 -6.23677,-2.0537 -7.31689,-4.30729 -1.55649,-3.2475 -0.35221,-8.08316 2.56435,-10.29695 2.36107,-1.79213 11.37517,-1.76368 13.8133,0.0436 1.84629,1.36859 1.85598,1.52528 0.19827,3.20715 -1.36128,1.38112 -2.00714,1.50397 -2.95,0.56111 -1.70515,-1.70515 -6.37273,-1.49869 -8.23571,0.36429 -2.92615,2.92615 -1.35521,4.79302 5.28951,6.28599 5.44058,1.22242 8.13906,3.6637 8.13906,7.36331 0,4.20465 -1.68958,6.75163 -5.54837,8.36393 -4.20764,1.75806 -7.02674,1.73905 -11.20163,-0.0755 z m -127.25,-13.50913 0,-14 2.52247,0 c 2.06805,0 3.55427,1.57628 8.25,8.75 l 5.72753,8.75 0.28893,-8.75 c 0.28238,-8.55149 0.34477,-8.75 2.75,-8.75 l 2.46107,0 0,14 0,14 -2.52243,0 c -2.068,0 -3.55428,-1.57636 -8.25,-8.75 l -5.72757,-8.75 -0.28893,8.75 c -0.28238,8.55149 -0.34477,8.75 -2.75,8.75 l -2.46107,0 0,-14 z m 32,0 0,-14 2.5,0 2.5,0 0,14 0,14 -2.5,0 -2.5,0 0,-14 z m 19.57441,12.82014 c -1.44957,-4.59296 -7.95457,-24.55388 -8.35894,-25.64984 -0.35058,-0.95018 0.31339,-1.23559 2.32634,-1 2.58525,0.30258 3.01493,0.98772 5.22386,8.3297 1.3238,4.4 2.73561,8.34503 3.13735,8.76673 0.40174,0.4217 1.94504,-3.2908 3.42955,-8.25 2.45807,-8.21149 2.92097,-9.01673 5.18327,-9.01673 1.36629,0 2.48416,0.35069 2.48416,0.77932 0,0.42863 -1.94991,6.61613 -4.33313,13.75 -3.64192,10.90162 -4.67951,13.02175 -6.50447,13.29082 -1.19424,0.17607 -2.35883,-0.27393 -2.58799,-1 z m 19.42559,-12.82014 0,-14 9.5,0 c 8.83333,0 9.5,0.14035 9.5,2 0,1.80952 -0.66667,2 -7,2 l -7,0 0,4 0,4 6,0 c 5.33333,0 6,0.22222 6,2 0,1.77778 -0.66667,2 -6,2 l -6,0 0,4 0,4 7,0 c 6.33333,0 7,0.19048 7,2 0,1.85965 -0.66667,2 -9.5,2 l -9.5,0 0,-14 z m 26,0 0,-14 7.75,0.0318 c 8.02732,0.0329 10.03863,0.80714 12.08666,4.65246 1.78412,3.34981 1.40448,5.87571 -1.38059,9.18557 l -2.54392,3.02329 2.54392,5.02019 c 1.39916,2.76111 2.54393,5.26016 2.54393,5.55345 0,0.29328 -1.25626,0.53324 -2.79168,0.53324 -2.39023,0 -3.17959,-0.79092 -5.48914,-5.5 -1.93674,-3.94895 -3.26453,-5.5 -4.70831,-5.5 -1.77075,0 -2.01087,0.65676 -2.01087,5.5 0,5.44444 -0.0303,5.5 -3,5.5 l -3,0 0,-14 z m 12.44599,-1.61765 c 0.88526,-0.33971 2.05738,-1.45439 2.60471,-2.47708 1.36939,-2.55874 -2.05956,-5.90527 -6.0507,-5.90527 -2.88889,0 -3,0.16667 -3,4.5 0,4.09275 0.21885,4.5 2.41821,4.5 1.33002,0 3.14252,-0.27794 4.02778,-0.61765 z m 42.55401,1.61765 0,-14 2.5,0 2.5,0 0,14 0,14 -2.5,0 -2.5,0 0,-14 z m 19,2 0,-12 -3.5,0 c -2.83333,0 -3.5,-0.38095 -3.5,-2 0,-1.86667 0.66667,-2 10,-2 9.33333,0 10,0.13333 10,2 0,1.61905 -0.66667,2 -3.5,2 l -3.5,0 0,12 0,12 -3,0 -3,0 0,-12 z m 15,11.27191 c 0,-0.40044 2.1375,-6.71302 4.75,-14.02795 4.38099,-12.26665 4.93298,-13.27828 7.10534,-13.02192 2.05452,0.24246 2.98047,1.99783 7.25,13.74418 2.69206,7.40643 4.89466,13.59393 4.89466,13.75 0,0.15608 -1.13614,0.28378 -2.52475,0.28378 -1.77294,0 -2.80779,-0.74445 -3.47525,-2.5 -0.84055,-2.21081 -1.53422,-2.5 -5.99669,-2.5 -4.41218,0 -5.1893,0.3141 -6.18526,2.5 -0.74253,1.62967 -1.95353,2.5 -3.47857,2.5 -1.28671,0 -2.33948,-0.32764 -2.33948,-0.72809 z m 14.21719,-13.27191 c -0.87942,-2.75 -1.89182,-5 -2.24978,-5 -0.35796,0 -1.2013,1.6875 -1.8741,3.75 -0.67279,2.0625 -1.45652,4.3125 -1.74162,5 -0.36401,0.8778 0.67013,1.25 3.47304,1.25 l 3.99139,0 -1.59893,-5 z m 18.78281,2 0,-12 -3.5,0 c -2.83333,0 -3.5,-0.38095 -3.5,-2 0,-1.86667 0.66667,-2 10,-2 9.22959,0 10,0.14943 10,1.93963 0,1.51952 -0.81224,2.00686 -3.75,2.25 l -3.75,0.31037 -0.28174,11.75 -0.28173,11.75 -2.46827,0 -2.46826,0 0,-12 z m -28,-22 c 0,-1.33333 0.66667,-2 2,-2 1.33333,0 2,0.66667 2,2 0,1.33333 -0.66667,2 -2,2 -1.33333,0 -2,-0.66667 -2,-2 z m 9,0 c 0,-1.33333 0.66667,-2 2,-2 1.33333,0 2,0.66667 2,2 0,1.33333 -0.66667,2 -2,2 -1.33333,0 -2,-0.66667 -2,-2 z"
       id="path3086"
       style="fill:#10427a;fill-opacity:1" />
    <path
       d="m 34.671706,195.28298 c -1.048255,-1.04826 0.441329,-9.21012 2.246751,-12.31061 l 1.124904,-1.93181 -4.579215,0 c -4.929045,0 -6.365981,0.39125 -9.658629,2.62988 -2.24049,1.52328 -4.92006,2.53767 -5.376021,2.03517 -0.173111,-0.19078 0.962245,-3.02473 2.523013,-6.29767 l 2.83776,-5.95079 3.539602,-0.29921 c 1.946781,-0.16456 6.137515,-0.2992 9.312741,-0.2992 l 5.773138,0 0.29192,-3.75 c 0.329738,-4.23581 0.403332,-17.15909 0.09772,-17.15909 -0.109809,0 -1.797309,1.15494 -3.75,2.56655 -6.032424,4.36084 -15.057465,8.22536 -23.095802,9.8896 -2.888767,0.59809 -12.1453689,1.62938 -14.6590905,1.6332 l -1.02272726,0.002 0.0198132,-57.1591 C 0.30847665,77.443964 0.49078633,49.629987 0.7027121,47.072628 1.153346,41.634717 1.9897793,39.660606 4.7349276,37.555981 c 4.27985,-3.281236 11.8245454,-4.600871 17.9913474,-3.14685 5.757737,1.357571 8.958128,3.422481 15.3924,9.931261 5.286266,5.347481 5.795641,5.749599 5.797577,4.576818 0.0027,-1.657787 2.550292,-34.098264 3.254792,-41.4463658 0.325122,-3.3911101 0.776827,-5.8536425 1.140445,-6.2172584 0.887059,-0.88706126 4.511914,-1.18965964 12.382782,-1.03369967 l 7.007413,0.13885078 3.674405,5.33212409 3.674405,5.332124 11.587759,-0.104851 11.587754,-0.104852 3.639523,-5.3479319 3.63951,-5.34793231 9.18896,0.12065957 c 7.45257,0.0978591 9.31523,0.24949914 9.85716,0.80247774 0.48875,0.4987187 1.22667,5.8086032 2.74784,19.7727269 2.32358,21.330144 3.26845,28.42605 3.86449,29.022087 0.23598,0.235977 0.78416,-0.340423 1.31691,-1.384687 1.2309,-2.412772 8.3135,-9.051156 11.92185,-11.17413 4.43926,-2.611831 7.11342,-3.285623 12.92097,-3.255622 4.05602,0.02095 5.48461,0.2169 7.56686,1.037885 3.1007,1.222538 6.62632,4.215576 7.5577,6.416046 1.10208,2.603748 1.4106,18.422712 1.43967,73.818499 l 0.0267,50.8437 -4.20455,-0.30869 c -14.07741,-1.03354 -23.61635,-4.13341 -34.09178,-11.07882 l -4.88724,-3.24033 0.26627,10.10658 c 0.14644,5.55861 0.33294,10.33092 0.41443,10.60511 0.0978,0.32917 3.27154,0.58548 9.34152,0.75443 6.97546,0.19415 9.2845,0.40286 9.57117,0.8651 1.0675,1.72124 5.526,11.77945 5.315,11.99045 -0.41732,0.41732 -3.71343,-0.91562 -5.83816,-2.36092 -2.95545,-2.01041 -4.60394,-2.42941 -9.55792,-2.42941 l -4.4447,0 1.34782,2.61363 c 0.76538,1.48418 1.62508,4.20206 1.98941,6.28933 1.40537,8.05155 -0.1764,7.58759 -9.8194,-2.88024 l -5.54817,-6.02272 -10.85851,0 c -11.70375,0 -12.20731,0.0871 -14.449736,2.5 -0.625,0.6725 -1.702536,1.51727 -2.394531,1.87726 -1.123509,0.58448 -1.288787,0.57473 -1.544282,-0.0911 -0.313755,-0.81763 0.250359,-3.64389 1.740086,-8.718 l 0.967523,-3.29546 4.82015,-0.0451 c 7.3622,-0.0689 12.44739,-0.55173 12.66205,-1.20223 0.10265,-0.31104 -2.11308,-2.919 -4.92384,-5.79545 l -5.11047,-5.22995 -18.060186,0 -18.060186,0 -3.135604,3.52272 c -5.941646,6.6752 -6.580705,7.53578 -5.885073,7.92508 0.35035,0.19607 4.410241,0.49279 9.021973,0.65939 l 8.384968,0.30289 1.2216,5.04496 c 0.671882,2.77472 1.21785,5.50518 1.213259,6.06768 -0.01277,1.56696 -1.413455,1.27367 -3.753232,-0.78588 -1.130082,-0.99474 -2.604014,-2.01747 -3.275405,-2.27273 -0.703545,-0.26749 -5.699063,-0.46411 -11.791431,-0.46411 l -10.570728,0 -4.163995,4.6955 c -7.129171,8.03918 -10.107911,10.58953 -11.150524,9.54692 z m 45.507519,-44.04274 c 2.463169,-1.72528 2.600864,-2.58833 2.570087,-16.10878 -0.02036,-8.94187 -0.186646,-12.79111 -0.584178,-13.52272 -0.616681,-1.13493 -2.389454,-1.37902 -3.171518,-0.43669 -0.2675,0.32232 -0.717018,3.74846 -0.998927,7.61364 -0.281905,3.86517 -0.701723,7.22191 -0.932923,7.45941 -0.2312,0.2375 -0.424836,0.33977 -0.4303,0.22727 -0.165604,-3.40916 -1.346545,-15.05251 -1.562095,-15.40127 -0.164891,-0.2668 -0.897468,-0.48509 -1.62795,-0.48509 -1.061118,0 -1.398437,0.25132 -1.677723,1.25 -0.192264,0.6875 -0.349568,6.875 -0.349568,13.75 0,11.0475 0.09243,12.66903 0.795445,13.95468 0.437496,0.80007 1.153405,1.66317 1.590909,1.918 1.239682,0.72205 5.231146,0.58535 6.378741,-0.21845 l 0,0 z m 19.148,0.049 c 2.357165,-1.21894 2.551805,-2.47349 2.436205,-15.70325 -0.0579,-6.625 -0.27591,-12.65909 -0.48451,-13.40909 -0.30165,-1.08459 -0.66356,-1.3919 -1.768549,-1.50175 -1.8197,-0.18089 -1.941146,0.1873 -2.444387,7.41084 -0.73845,10.59972 -1.373054,10.64763 -1.819113,0.13733 -0.269246,-6.34418 -0.423441,-7.4221 -1.136282,-7.94334 -1.125736,-0.82316 -1.435259,-0.76924 -2.669586,0.46509 -0.915319,0.91532 -1.117355,1.71211 -1.411887,5.56818 -0.395272,5.17499 0.407046,20.57116 1.188464,22.80621 0.286136,0.81841 1.06105,1.78181 1.722032,2.14089 1.564772,0.85007 4.771586,0.86457 6.387613,0.0289 l 0,-2e-5 z m -77.231277,-3.4039 c 2.620831,-1.82247 2.487963,0.79153 2.637996,-51.899055 L 24.87194,47.52296 23.824853,47.24251 c -0.575898,-0.154246 -1.711859,-0.283246 -2.524359,-0.286659 l -1.477273,-0.0062 -0.0014,30.113636 C 19.820357,108.44556 19.472649,124.33906 18.849744,121.4951 18.658096,120.6201 18.289363,105.17692 18.030338,87.176919 17.5667,54.958051 17.403231,50.687787 16.573057,49.108737 15.995331,48.00986 14.962441,48.113423 14.306343,49.33601 c -0.819336,1.526768 -1.377219,32.192945 -1.20523,66.25 0.126832,25.11515 0.238992,29.07025 0.863637,30.45455 1.347089,2.98533 5.225593,3.86529 8.131179,1.8448 l 1.9e-5,0 z m 136.022732,0.35815 c 2.07713,-1.08826 2.29533,-2.20034 2.64685,-13.48975 0.49749,-15.97759 -0.2415,-83.100723 -0.9354,-84.963205 -0.72945,-1.957904 -2.01951,-1.957904 -2.71687,0 -0.35985,1.010323 -0.65587,10.672596 -0.93649,30.568182 -0.22569,16 -0.56349,32.261363 -0.75069,36.136363 -0.63828,13.21282 -0.9489,2.63378 -1.00428,-34.204545 l -0.0531,-35.340909 -1.47728,0.0062 c -0.8125,0.0036 -1.9375,0.129545 -2.5,0.280291 l -1.02272,0.274077 0.0248,43.015168 c 0.0136,23.658348 0.19372,45.941858 0.40019,49.518928 0.33629,5.82631 0.48158,6.61678 1.39479,7.58884 1.45002,1.54348 4.61687,1.82239 6.93023,0.61036 l 2e-5,2e-5 z m -96.92705,-2.0508 c 2.271382,-1.34175 2.467577,-2.30605 2.632477,-12.93866 0.153273,-9.88269 -0.384573,-17.86991 -1.262436,-18.74777 -0.326591,-0.32659 -0.701768,-0.24267 -1.216596,0.27216 -0.560909,0.56091 -0.891586,2.45044 -1.34165,7.66633 -0.3285,3.80707 -0.779177,7.10385 -1.0015,7.32617 -0.414609,0.41461 -0.989122,-5.09869 -0.994163,-9.54044 -0.0032,-2.95074 -0.953768,-5.36137 -2.279709,-5.78221 -1.305564,-0.41437 -1.840355,0.18438 -2.303019,2.57843 -0.584959,3.02684 -0.512359,24.52232 0.08865,26.24635 0.598459,1.71674 3.247591,3.61147 5.103045,3.64984 0.711428,0.0147 1.870132,-0.31389 2.574905,-0.7302 l 0,0 z m 55.82933,0.1139 c 2.47233,-1.2785 2.57693,-1.94871 2.55342,-16.36093 -0.0222,-13.62803 -0.29626,-16.00888 -1.77713,-15.44062 -0.94655,0.36323 -1.48071,2.74886 -1.81958,8.1264 -0.58837,9.33706 -1.27775,9.42223 -1.90123,0.23489 -0.48608,-7.16283 -0.99054,-8.64398 -2.94404,-8.64398 -1.73469,0 -1.96034,1.54184 -2.12871,14.54546 -0.18814,14.53016 -0.0256,15.50257 2.86499,17.1381 2.11197,1.19499 3.4196,1.29668 5.15228,0.40068 z M 40.141028,140.1505 c 2.652577,-1.61738 2.636738,-1.38654 2.636738,-38.42813 0,-18.499997 -0.158972,-34.383656 -0.353272,-35.297019 -0.571357,-2.685823 -2.570182,-2.81895 -3.524209,-0.234719 -0.363656,0.985059 -0.663095,9.708441 -0.946615,27.577196 -0.693118,43.683542 -1.627791,39.040582 -1.713423,-8.511364 l -0.05339,-29.647727 -1.477273,0.245854 c -0.8125,0.135219 -1.9375,0.338546 -2.5,0.451841 l -1.022727,0.205987 0.03108,31.241341 c 0.03068,30.84375 0.426426,49.10632 1.09845,50.6907 0.460565,1.08585 3.311028,2.55144 5.006836,2.57431 0.75,0.0101 2.018013,-0.38061 2.817807,-0.86827 l 10e-7,0 z m 99.579892,-0.021 c 0.81872,-0.49918 1.739,-1.47 2.04505,-2.15739 0.84082,-1.88848 1.07161,-81.413695 0.23702,-81.671913 -0.32387,-0.100205 -1.32261,-0.283641 -2.21942,-0.407632 l -1.63055,-0.225441 -0.33116,32.573055 c -0.18213,17.915181 -0.4814,33.391231 -0.66504,34.391231 -0.57782,3.14654 -0.96375,-7.12879 -0.9902,-26.363636 -0.0262,-19.065068 -0.46397,-29.493132 -1.30395,-31.06265 -0.65773,-1.228986 -1.47583,-1.249 -2.5497,-0.06238 -0.7573,0.8368 -0.87037,2.395682 -1.24465,17.159091 -0.45789,18.061705 -0.13302,49.294745 0.55661,53.511395 0.35061,2.14375 0.74201,2.99472 1.82934,3.97727 1.6933,1.53013 4.09951,1.6603 6.26665,0.339 l 0,0 z M 79.121457,113.3229 c 3.565968,-1.72626 3.656309,-2.13693 3.656309,-16.620558 0,-11.531213 -0.07841,-12.866931 -0.821941,-14.0017 -1.046918,-1.597804 -2.0195,-1.968036 -2.888113,-1.099422 -0.506,0.505995 -0.800587,2.511941 -1.127255,7.675791 -0.687986,10.875439 -1.1532,10.981139 -1.990341,0.4522 -0.317377,-3.991719 -0.712836,-7.477378 -0.8788,-7.74591 -0.460072,-0.744413 -2.331709,-0.581963 -3.03335,0.263282 -0.838882,1.010587 -1.212777,24.885267 -0.4306,27.495927 0.522987,1.74557 2.600105,3.72786 4.352218,4.15351 0.5,0.12147 0.997919,0.24459 1.106491,0.27359 0.108569,0.029 1.033491,-0.35202 2.055382,-0.84671 l 0,0 z m 19.764587,-0.41611 c 0.609554,-0.43235 1.530006,-1.3532 2.045456,-2.04634 0.89998,-1.21025 0.93304,-1.75933 0.83312,-13.835553 -0.0572,-6.916409 -0.2753,-13.188927 -0.48458,-13.938927 -0.43079,-1.543809 -2.279187,-2.108973 -3.213924,-0.982682 -0.309172,0.372527 -0.753068,3.5626 -1.031004,7.409345 -0.756396,10.468891 -1.454055,10.303032 -1.966178,-0.467432 -0.347786,-7.3143 -1.33724,-9.227209 -3.601563,-6.962886 -1.541077,1.541077 -1.824346,4.512432 -1.431468,15.015314 0.475804,12.719741 0.978731,14.602731 4.360322,16.325321 1.668469,0.84992 2.736991,0.72708 4.489819,-0.51616 l 0,0 z M 62.609321,106.5187 c 0.408495,-0.4953 0.882291,-2.22071 1.056495,-3.84741 0.404414,-3.776358 0.405728,-23.79983 0.0018,-25.409735 -0.244909,-0.9758 -0.572663,-1.221 -1.632063,-1.221 -1.838668,0 -2.200964,1.222036 -2.265977,7.643227 -0.02959,2.921223 -0.200096,5.924955 -0.378919,6.674955 l -0.325141,1.363636 -0.299068,-1.590909 c -0.164491,-0.875 -0.512182,-4.036909 -0.77265,-7.026463 -0.506882,-5.816046 -1.036609,-7.064446 -2.997777,-7.064446 -0.577459,0 -1.261668,0.395646 -1.520464,0.879209 -0.588031,1.09875 -0.620559,24.516916 -0.03755,27.030316 0.226223,0.97524 0.81915,2.181 1.317618,2.67948 1.809859,1.80985 6.322096,1.74616 7.853668,-0.11086 l 5e-6,0 z m 55.855799,0.19779 c 0.8999,-0.9579 1.02587,-1.7973 1.44262,-9.612744 0.43826,-8.2188 0.25846,-18.731405 -0.34736,-20.310164 -0.17534,-0.456922 -0.79765,-0.753027 -1.5826,-0.753027 -1.1077,0 -1.36169,0.245018 -1.76702,1.704546 -0.26036,0.9375 -0.49491,3.954545 -0.52122,6.704545 -0.0263,2.75 -0.21161,5.511364 -0.41177,6.136364 -0.20016,0.625 -0.39038,0.931818 -0.42269,0.681818 -0.10927,-0.845182 -1.37653,-13.179327 -1.38605,-13.490259 -0.022,-0.717018 -1.5212,-1.737014 -2.55316,-1.737014 -1.89418,0 -2.07529,1.436877 -1.91888,15.224177 0.12557,11.069608 0.24776,12.919328 0.93664,14.178818 0.95025,1.7374 1.41338,2.05429 3.51051,2.40205 2.37659,0.39411 3.91499,0.0481 5.02098,-1.12911 z M 89.140012,62.81376 c 3.477859,-6.733773 3.524841,-8.008837 0.373991,-10.149891 -2.163846,-1.470373 -3.574187,-1.475246 -5.716146,-0.01973 -2.096241,1.424428 -2.416013,2.600146 -1.467245,5.394673 1.001232,2.949059 3.895782,8.910846 4.326372,8.910846 0.19081,0 1.308173,-1.86115 2.483028,-4.135887 l 0,-1.3e-5 z m 20.388918,-9.783932 c 2.78596,-0.921618 7.77052,-5.520914 9.63923,-8.894189 1.17623,-2.123268 1.33398,-2.85024 1.31277,-6.049629 -0.0447,-6.741777 -3.26774,-11.951775 -9.2005,-14.872467 -5.62946,-2.771372 -12.262055,-1.848596 -17.072805,2.375298 -7.512586,6.596135 -7.849931,16.5952 -0.787163,23.331937 5.236391,4.994673 9.863398,6.174959 16.108468,4.10905 z M 75.909734,52.221219 c 3.3406,-1.634405 6.437169,-4.717014 7.859732,-7.824305 1.043068,-2.278358 1.138309,-2.956037 0.9723,-6.918336 -0.146804,-3.504003 -0.419986,-4.898289 -1.350459,-6.892568 -1.475532,-3.162501 -4.445445,-6.136889 -7.658995,-7.670531 -2.125155,-1.014214 -3.113382,-1.193106 -6.590909,-1.193106 -3.481764,0 -4.475723,0.180386 -6.675246,1.211439 -7.374154,3.456723 -11.332859,12.700666 -8.572077,20.016576 1.691986,4.483658 6.136291,8.576758 11.059159,10.185226 3.000336,0.980309 7.923677,0.569423 10.956495,-0.914395 l 0,0 z"
       transform="translate(207.87725,485.34809)"
       id="path3772"
       style="fill:#ffffff;fill-opacity:1;stroke:#000076;stroke-width:0.67000002;stroke-linecap:round;stroke-miterlimit:4;stroke-opacity:1;stroke-dasharray:none;stroke-dashoffset:0" />
    <path
       d="m 226.41413,65.342956 c -3.78915,-1.967777 -4.27702,-2.68748 -4.77845,-7.049172 -0.24306,-2.114276 -0.44348,-7.47482 -0.44537,-11.91232 l -0.003,-8.068182 2.20147,0 2.20148,0 0.27391,9.537901 c 0.23348,8.130025 0.40686,9.838438 1.17456,11.573951 1.00018,2.261082 1.85634,2.673114 5.07169,2.440782 1.72382,-0.124558 2.10952,-0.353954 2.91633,-1.734452 0.84523,-1.446226 0.94476,-2.510677 1.09449,-11.704545 l 0.16471,-10.113637 2.71701,0 2.71702,0 -0.19555,9.659091 c -0.11219,5.541367 -0.42153,10.360098 -0.72563,11.303469 -1.362,4.225069 -4.84669,6.813659 -9.55038,7.094479 -2.06513,0.123293 -3.00124,-0.07566 -4.83384,-1.027365 z"
       transform="translate(207.87725,485.34809)"
       id="path3774"
       style="fill:#ffffff;fill-opacity:1;stroke:#000076;stroke-width:0.67000002;stroke-linecap:round;stroke-miterlimit:4;stroke-opacity:1;stroke-dasharray:none;stroke-dashoffset:0" />
    <path
       d="m 250.27777,52.235013 0,-13.921731 1.81868,0 c 2.46952,0 4.19342,1.840381 9.85919,10.525392 l 4.45849,6.834372 0.35308,-6.748064 c 0.1942,-3.711435 0.50102,-7.566245 0.68182,-8.566245 0.31709,-1.753745 0.3972,-1.823135 2.26055,-1.957954 l 1.93182,-0.139771 0,13.889771 c 0,13.65992 -0.0153,13.889772 -0.92369,13.889772 -3.06227,0 -5.12582,-2.172308 -11.40512,-12.006239 -1.84415,-2.8881 -3.50641,-5.254556 -3.69391,-5.25879 -0.1875,-0.0042 -0.35241,1.577529 -0.36646,3.515029 -0.0308,4.249101 -0.63924,12.748116 -0.93369,13.042565 -0.11619,0.116194 -1.0729,0.349043 -2.12601,0.517443 l -1.91475,0.306181 0,-13.921731 z"
       transform="translate(207.87725,485.34809)"
       id="path3776"
       style="fill:#ffffff;fill-opacity:1;stroke:#000076;stroke-width:0.67000002;stroke-linecap:round;stroke-miterlimit:4;stroke-opacity:1;stroke-dasharray:none;stroke-dashoffset:0" />
    <path
       d="m 282.09595,52.176919 0,-13.863637 2.27273,0 2.27272,0 0,13.863637 0,13.863636 -2.27272,0 -2.27273,0 0,-13.863636 z"
       transform="translate(207.87725,485.34809)"
       id="path3778"
       style="fill:#ffffff;fill-opacity:1;stroke:#000076;stroke-width:0.67000002;stroke-linecap:round;stroke-miterlimit:4;stroke-opacity:1;stroke-dasharray:none;stroke-dashoffset:0" />
    <path
       d="m 301.68326,64.559744 c -0.94329,-2.481042 -8.22368,-25.25529 -8.22368,-25.725016 0,-0.566818 1.43229,-0.673276 3.08874,-0.229578 1.36325,0.365164 2.29706,2.288856 4.61279,9.502536 1.04713,3.261921 2.09882,6.22783 2.33709,6.590909 0.72675,1.107453 1.5659,-0.512428 3.87123,-7.472957 2.90865,-8.782158 2.98412,-8.912356 5.16591,-8.912356 0.97883,0 1.88714,0.173863 2.01847,0.386361 0.28707,0.464491 -5.70432,19.160613 -7.2873,22.740024 -1.43608,3.247217 -2.27932,4.146343 -3.88862,4.146343 -0.93585,0 -1.4147,-0.289994 -1.69463,-1.026266 z"
       transform="translate(207.87725,485.34809)"
       id="path3780"
       style="fill:#ffffff;fill-opacity:1;stroke:#000076;stroke-width:0.67000002;stroke-linecap:round;stroke-miterlimit:4;stroke-opacity:1;stroke-dasharray:none;stroke-dashoffset:0" />
    <path
       d="m 321.18686,52.243945 0,-13.930663 8.80798,0 c 9.2941,0 10.12272,0.181401 9.74673,2.133753 -0.21286,1.105271 -1.84322,1.385107 -8.44108,1.448832 l -5.56818,0.05378 0,4.053838 0,4.053838 5.69926,0.150707 c 4.45234,0.117735 5.79338,0.299882 6.12941,0.832526 0.58894,0.933536 0.55478,1.187977 -0.27023,2.012987 -0.56951,0.56951 -1.81326,0.714286 -6.13636,0.714286 l -5.42208,0 0,4.020907 0,4.020906 6.34054,0.302676 c 3.48729,0.166471 6.65774,0.424402 7.04545,0.573179 0.95866,0.367871 0.89397,2.273151 -0.0905,2.66661 -0.4375,0.174847 -4.63069,0.431438 -9.31819,0.570203 l -8.52272,0.252299 0,-13.930663 z"
       transform="translate(207.87725,485.34809)"
       id="path3782"
       style="fill:#ffffff;fill-opacity:1;stroke:#000076;stroke-width:0.67000002;stroke-linecap:round;stroke-miterlimit:4;stroke-opacity:1;stroke-dasharray:none;stroke-dashoffset:0" />
    <path
       d="m 347.09595,52.240511 0,-13.927229 6.25,0.01111 c 9.37172,0.01666 11.32859,0.707661 13.38982,4.728133 1.46918,2.865665 0.97919,5.560581 -1.61943,8.906861 -1.16122,1.495313 -2.1113,2.884886 -2.1113,3.087939 0,0.203054 1.02273,2.43121 2.27273,4.95146 1.25,2.520249 2.27272,4.78454 2.27272,5.031758 0,0.75582 -2.41613,0.962293 -3.91791,0.334808 -1.09957,-0.45943 -1.96507,-1.582655 -3.8528,-5.000096 -2.42786,-4.395247 -3.81259,-5.735642 -5.52443,-5.347531 -0.97227,0.220436 -1.15895,1.053656 -1.37346,6.130421 -0.0923,2.184176 -0.28534,4.088778 -0.42901,4.232449 -0.14367,0.143671 -1.40776,0.379553 -2.80908,0.524182 l -2.54785,0.262962 0,-13.927229 z m 12.48626,-1.905719 c 0.818,-0.38817 1.86981,-1.416065 2.33733,-2.284211 0.76955,-1.428969 0.78587,-1.691554 0.17232,-2.772801 -1.06967,-1.885059 -2.9122,-2.981522 -5.41425,-3.221938 -3.28056,-0.31522 -3.67257,0.154867 -3.67257,4.404006 0,2.108227 0.21594,3.705737 0.54545,4.035253 0.77031,0.770302 4.26641,0.677384 6.03172,-0.160309 l 0,0 z"
       transform="translate(207.87725,485.34809)"
       id="path3784"
       style="fill:#ffffff;fill-opacity:1;stroke:#000076;stroke-width:0.67000002;stroke-linecap:round;stroke-miterlimit:4;stroke-opacity:1;stroke-dasharray:none;stroke-dashoffset:0" />
    <path
       d="m 65.331078,48.225925 c -2.558042,-0.570827 -5.975815,-3.880495 -6.770438,-6.556288 -0.663766,-2.23515 -0.729002,-6.932003 -0.11858,-8.537535 0.574333,-1.510609 3.862139,-4.674693 5.980391,-5.755345 5.771425,-2.944361 12.208194,-0.352963 15.227109,6.130327 1.897684,4.075385 1.085246,8.18841 -2.3784,12.040819 -1.646832,1.831674 -2.43027,2.329196 -4.298725,2.729908 -2.686392,0.576128 -4.894224,0.561136 -7.641357,-0.05189 l 0,0 z m 7.314574,-4.694389 c 2.20003,-1.455911 3.146935,-2.944097 3.421132,-5.37676 0.589191,-5.227295 -4.991684,-8.969341 -10.043851,-6.734527 -2.873246,1.270973 -4.032119,3.200755 -3.800885,6.329323 0.203238,2.749788 1.807252,5.124325 4.430743,6.559148 1.89646,1.037199 3.581321,0.818697 5.992861,-0.777184 l 0,0 z"
       transform="translate(207.87725,485.34809)"
       id="path3786"
       style="fill:#ffffff;fill-opacity:1;stroke:#000076;stroke-width:0.67000002;stroke-linecap:round;stroke-miterlimit:4;stroke-opacity:1;stroke-dasharray:none;stroke-dashoffset:0" />
    <path
       d="m 100.05049,48.133174 c -1.747832,-0.767857 -4.948287,-3.883327 -5.97759,-5.818865 -0.973894,-1.831345 -1.080951,-7.734715 -0.171476,-9.455572 0.908854,-1.719682 3.164127,-4.208599 4.73657,-5.227273 1.178035,-0.763165 2.149566,-0.905499 6.052446,-0.886712 4.4869,0.0216 4.70915,0.0707 6.36824,1.406904 0.9455,0.761489 2.33196,2.250904 3.08102,3.30981 1.17738,1.664388 1.38377,2.406086 1.52306,5.473363 0.12133,2.671785 -0.0317,3.954481 -0.61971,5.193584 -1.04899,2.210574 -5.24874,5.986106 -7.06214,6.348786 -2.37686,0.475372 -6.46937,0.297837 -7.93042,-0.344025 z m 6.87095,-3.871308 c 2.5625,-1.163679 4.35286,-3.620875 4.59661,-6.308655 0.16734,-1.84517 10e-4,-2.399011 -1.20682,-4.020855 -1.52029,-2.041234 -3.76053,-3.346346 -5.74404,-3.346346 -2.86632,0 -6.871891,3.573831 -7.288848,6.503214 -0.324074,2.276818 1.825216,5.748488 4.345738,7.019513 2.44287,1.231868 2.89324,1.244887 5.29736,0.153129 z"
       transform="translate(207.87725,485.34809)"
       id="path3788"
       style="fill:#ffffff;fill-opacity:1;stroke:#000076;stroke-width:0.67000002;stroke-linecap:round;stroke-miterlimit:4;stroke-opacity:1;stroke-dasharray:none;stroke-dashoffset:0" />
    <path
       d="m 220.27777,101.46699 0,-14.650184 5.68284,0.315744 c 8.71315,0.48411 11.53414,1.659089 13.48269,5.615723 0.95373,1.936591 1.06174,2.780188 1.06174,8.292287 0,7.20638 -0.64883,9.49764 -3.39104,11.97506 -2.06085,1.86186 -4.19352,2.37247 -11.7226,2.80666 l -5.11363,0.2949 0,-14.65019 z m 12.52341,8.85017 c 2.05596,-0.97562 2.63163,-2.90542 2.63163,-8.82206 0,-8.096442 -1.12073,-9.545454 -7.38283,-9.545454 l -3.22676,0 0,9.545454 0,9.54546 3.22676,0 c 2.00903,0 3.80206,-0.273 4.7512,-0.7234 z"
       transform="translate(207.87725,485.34809)"
       id="path3790"
       style="fill:#ffffff;fill-opacity:1;stroke:#000076;stroke-width:0.67000002;stroke-linecap:round;stroke-miterlimit:4;stroke-opacity:1;stroke-dasharray:none;stroke-dashoffset:0" />
    <path
       d="m 253.38742,115.72516 c -2.4776,-0.10911 -4.11689,-0.39153 -4.42456,-0.76226 -0.30878,-0.37205 -0.60202,-5.63849 -0.79631,-14.30109 l -0.30754,-13.712164 6.09574,0.05646 c 3.35266,0.03105 7.52756,0.184462 9.27756,0.340909 l 3.18182,0.28445 0.13677,1.870374 c 0.12992,1.776772 0.0645,1.884822 -1.30682,2.15909 -0.79397,0.158795 -3.66802,0.288718 -6.38677,0.288718 l -4.94318,0 0,3.636364 0,3.636363 4.90909,0 c 5.05202,0 6,0.299103 6,1.893096 0,1.32466 -1.52092,1.74327 -6.33375,1.74327 l -4.57534,0 0,4.09091 0,4.09091 4.65909,0.005 c 2.5625,0.003 5.42614,0.13179 6.36364,0.28675 1.62215,0.26812 1.70454,0.36545 1.70454,2.01362 0,0.95254 -0.15341,1.82473 -0.34091,1.93822 -0.57178,0.34606 -8.73709,0.62493 -12.91307,0.44102 l 0,-1e-5 z"
       transform="translate(207.87725,485.34809)"
       id="path3792"
       style="fill:#ffffff;fill-opacity:1;stroke:#000076;stroke-width:0.67000002;stroke-linecap:round;stroke-miterlimit:4;stroke-opacity:1;stroke-dasharray:none;stroke-dashoffset:0" />
    <path
       d="m 276.41413,114.73897 c -1,-0.45489 -2.09076,-1.15649 -2.42392,-1.55911 -0.77042,-0.93107 -0.31434,-2.41678 1.00783,-3.2831 0.90927,-0.59577 1.19969,-0.57084 2.78891,0.23939 2.05772,1.04908 6.60832,1.22252 8.39236,0.31986 2.14392,-1.08475 2.39663,-4.74376 0.40138,-5.81158 -0.52749,-0.28231 -2.62166,-0.97149 -4.65372,-1.53153 -4.39445,-1.21112 -6.44618,-2.2073 -7.11323,-3.453699 -0.80031,-1.495394 -1.05332,-5.184697 -0.47561,-6.935175 0.61529,-1.864344 3.53533,-4.700862 5.29357,-5.142152 1.8706,-0.469491 8.41935,0.08964 10.30516,0.879853 1.99609,0.836426 2.13163,1.564585 0.56517,3.036201 -1.13354,1.064904 -1.15179,1.066474 -3.56268,0.306507 -3.58684,-1.130653 -5.13137,-1.000387 -6.69655,0.564791 -1.49775,1.497749 -1.61916,2.245637 -0.66431,4.092106 0.73443,1.420241 3.51364,2.761041 5.72307,2.761041 3.16495,0 6.31299,2.502177 7.20289,5.725127 0.72988,2.64341 -0.11646,6.53349 -1.74087,8.00169 -2.81042,2.54015 -10.57177,3.50821 -14.34945,1.78978 z"
       transform="translate(207.87725,485.34809)"
       id="path3794"
       style="fill:#ffffff;fill-opacity:1;stroke:#000076;stroke-width:0.67000002;stroke-linecap:round;stroke-miterlimit:4;stroke-opacity:1;stroke-dasharray:none;stroke-dashoffset:0" />
    <path
       d="m 223.48197,163.79195 c -2.42545,-0.83729 -3.82631,-2.01715 -3.5148,-2.96029 0.0859,-0.26011 0.68763,-0.77256 1.33714,-1.13879 0.99077,-0.55864 1.61145,-0.57694 3.85455,-0.11363 5.29095,1.09282 8.97739,0.50019 9.48566,-1.52492 0.73317,-2.92118 -0.79133,-4.43651 -5.53235,-5.49907 -6.12239,-1.37216 -7.92531,-3.24228 -7.92531,-8.22072 0,-4.88555 2.69494,-7.37349 8.38237,-7.73848 3.57188,-0.22923 7.86732,0.71182 8.89362,1.94844 0.47382,0.57092 0.4313,0.85565 -0.23825,1.5955 -0.91867,1.01512 -3.08123,1.17376 -5.78069,0.42407 -2.56661,-0.7128 -5.04539,0.1069 -6.25839,2.06956 -1.74269,2.81974 -0.71345,3.88724 5.40925,5.61034 4.11588,1.15832 6.48277,2.66432 7.47559,4.75655 1.49588,3.15232 0.62378,8.03567 -1.7079,9.56344 -3.21051,2.10361 -9.68479,2.67639 -13.88049,1.228 l 0,0 z"
       transform="translate(207.87725,485.34809)"
       id="path3796"
       style="fill:#ffffff;fill-opacity:1;stroke:#000076;stroke-width:0.67000002;stroke-linecap:round;stroke-miterlimit:4;stroke-opacity:1;stroke-dasharray:none;stroke-dashoffset:0" />
    <path
       d="m 245.63642,164.42951 c -0.3468,-0.3468 0.16911,-2.03615 3.18658,-10.43441 4.47269,-12.44845 6.1346,-16.29118 7.55567,-17.47057 1.69296,-1.40503 3.19782,1.37812 8.63623,15.97219 2.39458,6.42589 4.35378,11.8059 4.35378,11.95557 0,0.14968 -1.07387,0.21031 -2.38637,0.13475 -2.17896,-0.12545 -2.45027,-0.26532 -3.12167,-1.60926 -0.40442,-0.80952 -0.98123,-1.76818 -1.28181,-2.13035 -0.73765,-0.88882 -4.81115,-1.34717 -7.76902,-0.87419 -2.1666,0.34645 -2.55625,0.59266 -3.8472,2.43095 -1.23916,1.76454 -1.68361,2.064 -3.23622,2.18048 -0.98988,0.0743 -1.93037,0.004 -2.08997,-0.15516 l 0,0 z m 14.96167,-10.05844 c 0.45613,-1.18865 -2.80752,-9.89618 -3.53958,-9.44374 -0.21192,0.13098 -1.01252,2.19612 -1.77909,4.58922 -1.68583,5.26281 -1.53903,5.61491 2.341,5.61491 2.09149,0 2.75045,-0.16827 2.97767,-0.76039 z"
       transform="translate(207.87725,485.34809)"
       id="path3798"
       style="fill:#ffffff;fill-opacity:1;stroke:#000076;stroke-width:0.67000002;stroke-linecap:round;stroke-miterlimit:4;stroke-opacity:1;stroke-dasharray:none;stroke-dashoffset:0" />
    <path
       d="m 274.10758,162.97237 c 0.33422,-0.9375 2.28678,-6.20454 4.33903,-11.70454 6.26384,-16.78701 7.33735,-17.90315 10.49445,-10.91117 2.23484,4.94943 8.60943,22.69059 8.60943,23.96093 0,0.4263 -2.7893,0.48142 -3.84582,0.076 -0.4061,-0.15583 -1.13002,-1.05106 -1.60872,-1.98939 -0.4787,-0.93833 -1.22012,-1.84027 -1.6476,-2.00431 -1.43929,-0.55231 -5.83634,-0.77497 -7.89786,-0.39993 -1.72558,0.31391 -2.16606,0.61986 -2.81671,1.95636 -1.18897,2.44228 -1.5981,2.72061 -3.99923,2.72061 l -2.23464,0 0.60767,-1.70455 z m 15.71564,-8.18069 c 0,-1.02891 -2.88119,-8.76755 -3.43556,-9.22764 -0.54493,-0.45225 -0.84211,-0.12338 -1.75613,1.94338 -0.60511,1.36826 -1.33222,3.34939 -1.6158,4.40251 -0.28357,1.05312 -0.62842,2.20878 -0.76632,2.56815 -0.20605,0.53696 0.44638,0.65338 3.66154,0.65338 2.15175,0 3.91227,-0.1529 3.91227,-0.33978 z"
       transform="translate(207.87725,485.34809)"
       id="path3800"
       style="fill:#ffffff;fill-opacity:1;stroke:#000076;stroke-width:0.67000002;stroke-linecap:round;stroke-miterlimit:4;stroke-opacity:1;stroke-dasharray:none;stroke-dashoffset:0" />
    <path
       d="m 304.36868,150.35874 0,-14.31818 3.75,0.02 c 11.15942,0.0594 14.29524,1.51192 15.85512,7.34413 0.49085,1.83522 0.46005,2.34302 -0.2357,3.88591 -0.44019,0.97616 -1.57067,2.66925 -2.51219,3.76243 l -1.71185,1.98761 2.65458,5.61649 c 1.46002,3.08907 2.65458,5.70725 2.65458,5.81816 0,0.11092 -0.98707,0.20167 -2.19349,0.20167 -2.6788,0 -3.25514,-0.55668 -6.02009,-5.81475 -2.42931,-4.6198 -3.26146,-5.54889 -4.96995,-5.54889 -1.7657,0 -2.17374,0.88225 -2.54803,5.50924 -0.43627,5.39319 -0.66423,5.8544 -2.89355,5.8544 l -1.82943,0 0,-14.31818 z m 11.13636,-1.57932 c 2.26681,-0.52522 3.40909,-1.8876 3.40909,-4.06598 0,-2.85991 -0.76067,-3.41149 -4.96815,-3.60256 -2.47132,-0.11223 -3.90719,0.0167 -4.35863,0.39136 -0.95939,0.79622 -0.92867,6.03611 0.0411,7.00585 0.79909,0.79909 3.13361,0.90688 5.87662,0.27133 l 0,0 z"
       transform="translate(207.87725,485.34809)"
       id="path3802"
       style="fill:#ffffff;fill-opacity:1;stroke:#000076;stroke-width:0.67000002;stroke-linecap:round;stroke-miterlimit:4;stroke-opacity:1;stroke-dasharray:none;stroke-dashoffset:0" />
    <path
       d="m 333.00504,150.35874 0,-14.31818 2.5,0 2.5,0 0,12.04545 0,12.04545 5.34091,0.006 c 7.05219,0.008 7.38636,0.11094 7.38636,2.2709 0,1.14595 -0.239,1.80825 -0.71899,1.99244 -0.39545,0.15175 -4.38409,0.27591 -8.86364,0.27591 l -8.14464,0 0,-14.31818 z"
       transform="translate(207.87725,485.34809)"
       id="path3804"
       style="fill:#ffffff;fill-opacity:1;stroke:#000076;stroke-width:0.67000002;stroke-linecap:round;stroke-miterlimit:4;stroke-opacity:1;stroke-dasharray:none;stroke-dashoffset:0" />
    <path
       d="m 355.36931,164.25744 c 0,-1.16272 9.00239,-25.08691 10.10315,-26.84951 1.04884,-1.67945 3.19084,-0.97848 4.50318,1.47365 0.48508,0.90638 9.48458,25.24357 9.48458,25.64899 0,0.10662 -1.07387,0.13203 -2.38637,0.0565 -2.32615,-0.13393 -2.40853,-0.18644 -3.26509,-2.08145 -1.05199,-2.32736 -1.82887,-2.61682 -6.8724,-2.56059 -4.27186,0.0476 -4.94189,0.33867 -6.27788,2.72692 -0.91171,1.62979 -1.17316,1.78926 -3.14182,1.91627 -1.26298,0.0815 -2.14735,-0.0547 -2.14735,-0.33075 z m 14.94788,-9.53869 c 0.40745,-0.25805 0.5289,-0.80046 0.34408,-1.53681 -0.5649,-2.25076 -3.10643,-8.50502 -3.45617,-8.50502 -0.38596,0 -3.19943,8.13202 -3.19943,9.2476 0,0.37215 0.25568,0.77981 0.56818,0.90591 0.96513,0.38944 5.07837,0.30945 5.74334,-0.11168 l 0,0 z"
       transform="translate(207.87725,485.34809)"
       id="path3806"
       style="fill:#ffffff;fill-opacity:1;stroke:#000076;stroke-width:0.67000002;stroke-linecap:round;stroke-miterlimit:4;stroke-opacity:1;stroke-dasharray:none;stroke-dashoffset:0" />
    <path
       d="m 386.2784,151.12743 c 0,-14.88387 0.0889,-15.42415 2.43959,-14.83415 1.58726,0.39838 3.613,2.94042 8.46677,10.62473 2.07318,3.2822 3.9187,6.05988 4.10115,6.17264 0.18245,0.11276 0.48073,-3.67738 0.66285,-8.42254 l 0.33111,-8.62755 2.68108,0 2.68109,0 0,14.31818 0,14.31818 -1.98757,0 c -1.75685,0 -2.1936,-0.22424 -3.76254,-1.93182 -0.97624,-1.0625 -3.71252,-4.98568 -6.08062,-8.71819 l -4.30564,-6.78636 -0.37213,7.63434 c -0.45701,9.37573 -0.5886,9.80203 -3.02571,9.80203 l -1.82943,0 0,-13.54949 z"
       transform="translate(207.87725,485.34809)"
       id="path3808"
       style="fill:#ffffff;fill-opacity:1;stroke:#000076;stroke-width:0.67000002;stroke-linecap:round;stroke-miterlimit:4;stroke-opacity:1;stroke-dasharray:none;stroke-dashoffset:0" />
    <path
       d="m 417.18749,150.29261 0,-14.38432 5.56818,0.2491 c 6.73254,0.30118 9.25202,0.89466 11.4342,2.69339 2.8042,2.31146 3.19332,3.73397 3.21011,11.73523 0.0135,6.42655 -0.0739,7.21138 -0.99526,8.93431 -2.12275,3.96967 -5.25728,5.1566 -13.61791,5.1566 l -5.59932,0 0,-14.38431 z m 13.18096,8.70356 c 1.64758,-1.49152 2.28785,-3.22607 2.57755,-6.98282 0.3741,-4.85134 -0.36769,-7.8082 -2.40836,-9.59993 -1.45975,-1.28168 -1.80408,-1.37286 -5.18415,-1.37286 l -3.62055,0 0,9.59209 0,9.5921 3.81624,-0.16028 c 3.02789,-0.12717 4.02344,-0.34786 4.81927,-1.0683 l 0,0 z"
       transform="translate(207.87725,485.34809)"
       id="path3810"
       style="fill:#ffffff;fill-opacity:1;stroke:#000076;stroke-width:0.67000002;stroke-linecap:round;stroke-miterlimit:4;stroke-opacity:1;stroke-dasharray:none;stroke-dashoffset:0" />
    <path
       d="m 446.2784,150.3089 0,-14.36802 8.37352,0.16579 c 4.60544,0.0912 8.47518,0.26743 8.59942,0.39167 0.62978,0.62979 0.73275,2.58162 0.17629,3.34176 -0.53104,0.72541 -1.46661,0.87939 -6.61118,1.08804 l -5.9926,0.24305 0,3.55662 0,3.55662 5.34091,0.12806 5.34091,0.12807 0.13689,1.87272 c 0.1687,2.30804 -0.15201,2.43052 -6.38689,2.43925 l -4.43182,0.006 0,3.63636 0,3.63636 5.34091,0.006 c 2.9375,0.003 5.78382,0.12501 6.32514,0.27022 1.16982,0.31379 1.7319,2.10677 1.05623,3.36926 -0.45318,0.84679 -0.97574,0.89977 -8.87463,0.89977 l -8.3931,0 0,-14.36802 z"
       transform="translate(207.87725,485.34809)"
       id="path3812"
       style="fill:#ffffff;fill-opacity:1;stroke:#000076;stroke-width:0.67000002;stroke-linecap:round;stroke-miterlimit:4;stroke-opacity:1;stroke-dasharray:none;stroke-dashoffset:0" />
    <path
       d="m 473.64641,163.94155 c -2.36039,-0.86693 -3.56202,-2.42838 -2.86749,-3.72613 0.73847,-1.37983 1.47553,-1.44073 5.42704,-0.44837 5.85984,1.47161 8.7088,0.40466 8.7088,-3.26147 0,-2.23068 -0.80029,-2.82991 -5.22727,-3.91395 -6.77599,-1.65925 -8.40909,-3.12911 -8.40909,-7.56855 0,-5.46252 3.27278,-8.52798 9.10472,-8.52798 3.21742,0 7.29,0.98752 8.1006,1.96423 0.36513,0.43996 0.31272,0.85949 -0.19859,1.58948 -0.784,1.11931 -2.70037,1.28118 -6.04342,0.51045 -3.62274,-0.83522 -6.41786,1.01658 -6.41786,4.25191 0,1.67418 1.23249,2.42889 5.68182,3.47927 5.52245,1.30371 7.23461,2.47636 7.94613,5.44228 0.69926,2.91485 0.24369,6.42934 -1.00751,7.77234 -2.53852,2.72479 -10.46121,4.02927 -14.79788,2.43649 l 0,0 z"
       transform="translate(207.87725,485.34809)"
       id="path3814"
       style="fill:#ffffff;fill-opacity:1;stroke:#000076;stroke-width:0.67000002;stroke-linecap:round;stroke-miterlimit:4;stroke-opacity:1;stroke-dasharray:none;stroke-dashoffset:0" />
    <path
       d="m 380.8587,66.414839 c -1.10583,-0.194578 -2.94674,-0.818619 -4.09091,-1.386758 -2.53217,-1.25736 -2.95447,-2.633617 -1.16739,-3.804554 1.12256,-0.735532 1.34269,-0.737293 3.59053,-0.02873 3.67603,1.158766 6.71898,1.006216 8.41623,-0.421925 1.80414,-1.51808 1.88403,-3.375339 0.20211,-4.698338 -0.65802,-0.517599 -3.1637,-1.557956 -5.56818,-2.311904 -4.63362,-1.452915 -5.32054,-1.832317 -6.55173,-3.618672 -1.89347,-2.747254 -0.34406,-9.258696 2.56741,-10.789592 2.96975,-1.561544 11.32857,-1.24033 13.63104,0.523815 1.03879,0.795926 0.66842,2.26344 -0.81687,3.236639 -0.95704,0.62708 -1.19143,0.601546 -2.71164,-0.295403 -3.09664,-1.827061 -8.0456,-0.489466 -9.09562,2.458347 -0.65298,1.833136 0.65916,2.861031 5.68667,4.454777 7.2561,2.300222 8.82687,3.7241 8.72881,7.912514 -0.088,3.75668 -1.80061,6.257725 -5.2809,7.711883 -2.57418,1.07556 -5.28082,1.455337 -7.53956,1.057898 l 0,0 z"
       transform="translate(207.87725,485.34809)"
       id="path3816"
       style="fill:#ffffff;fill-opacity:1;stroke:#000076;stroke-width:0.67000002;stroke-linecap:round;stroke-miterlimit:4;stroke-opacity:1;stroke-dasharray:none;stroke-dashoffset:0" />
    <path
       d="m 402.18749,52.176919 0,-13.863637 2.27273,0 2.27272,0 0,13.863637 0,13.863636 -2.27272,0 -2.27273,0 0,-13.863636 z"
       transform="translate(207.87725,485.34809)"
       id="path3818"
       style="fill:#ffffff;fill-opacity:1;stroke:#000076;stroke-width:0.67000002;stroke-linecap:round;stroke-miterlimit:4;stroke-opacity:1;stroke-dasharray:none;stroke-dashoffset:0" />
    <path
       d="m 421.2784,54.046395 0,-11.994161 -3.20851,-0.181297 c -2.16414,-0.122285 -3.34552,-0.397903 -3.62941,-0.846749 -0.57919,-0.915729 -0.54302,-1.174126 0.27948,-1.99662 1.06255,-1.062555 17.50887,-1.062555 18.57143,0 0.82249,0.822494 0.85866,1.080891 0.27947,1.99662 -0.28389,0.448846 -1.46526,0.724464 -3.6294,0.846749 l -3.20852,0.181297 0,11.994161 0,11.99416 -2.72727,0 -2.72727,0 0,-11.99416 z"
       transform="translate(207.87725,485.34809)"
       id="path3820"
       style="fill:#ffffff;fill-opacity:1;stroke:#000076;stroke-width:0.67000002;stroke-linecap:round;stroke-miterlimit:4;stroke-opacity:1;stroke-dasharray:none;stroke-dashoffset:0" />
    <path
       d="m 437.30113,65.686103 c -0.5625,-0.08983 -1.02273,-0.310171 -1.02273,-0.489653 0,-0.179483 0.99978,-3.284575 2.22174,-6.900204 5.23051,-15.47643 6.94001,-19.414795 8.60908,-19.833706 2.34591,-0.588786 3.69282,2.023149 9.76772,18.941651 2.80619,7.815208 2.83882,7.959587 1.86239,8.24231 -1.76635,0.511444 -3.44207,-0.107273 -4.22338,-1.559375 -1.53354,-2.850138 -1.95698,-3.046571 -6.56741,-3.046571 -4.52073,0 -5.21199,0.316163 -6.60374,3.020371 -0.563,1.093909 -2.49873,1.871893 -4.04367,1.625177 z m 14.43181,-9.076242 c 0,-0.186882 -0.62541,-2.217068 -1.38981,-4.511525 -1.54925,-4.650307 -2.3481,-5.748494 -3.12528,-4.296336 -1.03298,1.930146 -3.20533,8.336445 -2.96094,8.731874 0.30587,0.494916 7.47603,0.567794 7.47603,0.07599 z"
       transform="translate(207.87725,485.34809)"
       id="path3822"
       style="fill:#ffffff;fill-opacity:1;stroke:#000076;stroke-width:0.67000002;stroke-linecap:round;stroke-miterlimit:4;stroke-opacity:1;stroke-dasharray:none;stroke-dashoffset:0" />
    <path
       d="m 469.00567,54.018855 0,-12.069209 -2.52988,0 c -1.39144,0 -2.92553,-0.211742 -3.40909,-0.470538 -1.05998,-0.567284 -1.16732,-2.503459 -0.16022,-2.889922 0.93742,-0.359719 17.17006,-0.359719 18.10747,0 0.39545,0.151748 0.71899,0.769769 0.71899,1.373382 0,1.326549 -1.04459,1.824415 -4.65909,2.220575 -2.4394,0.267367 -2.61761,0.367613 -2.67331,1.503756 -0.0328,0.669511 -0.18623,5.921838 -0.34091,11.671838 l -0.28123,10.454545 -2.38636,0.137391 -2.38637,0.137391 0,-12.069209 z"
       transform="translate(207.87725,485.34809)"
       id="path3824"
       style="fill:#ffffff;fill-opacity:1;stroke:#000076;stroke-width:0.67000002;stroke-linecap:round;stroke-miterlimit:4;stroke-opacity:1;stroke-dasharray:none;stroke-dashoffset:0" />
    <path
       d="m 441.58143,33.464797 c -0.16667,-0.166666 -0.30303,-0.878678 -0.30303,-1.582249 0,-0.987176 0.26078,-1.344669 1.14227,-1.565909 1.95882,-0.491634 3.3185,1.535867 1.94864,2.905734 -0.58796,0.587959 -2.294,0.73631 -2.78788,0.242424 z"
       transform="translate(207.87725,485.34809)"
       id="path3826"
       style="fill:#ffffff;fill-opacity:1;stroke:#000076;stroke-width:0.67000002;stroke-linecap:round;stroke-miterlimit:4;stroke-opacity:1;stroke-dasharray:none;stroke-dashoffset:0" />
    <path
       d="m 450.54637,33.119067 c -0.55226,-1.439152 0.0246,-2.757375 1.26964,-2.901208 1.5405,-0.177971 2.47914,1.250657 1.73512,2.640878 -0.56586,1.057314 -2.63029,1.236175 -3.00476,0.26033 z"
       transform="translate(207.87725,485.34809)"
       id="path3828"
       style="fill:#ffffff;fill-opacity:1;stroke:#000076;stroke-width:0.67000002;stroke-linecap:round;stroke-miterlimit:4;stroke-opacity:1;stroke-dasharray:none;stroke-dashoffset:0" />
  </g>
</svg>
